<svg xmlns="http://www.w3.org/2000/svg" xmlns:xlink="http://www.w3.org/1999/xlink" fill="none" version="1.1" width="268" height="268.0000305175781" viewBox="0 0 268 268.0000305175781"><defs><linearGradient x1="0.5" y1="0" x2="0.5" y2="1" id="master_svg0_10_7230"><stop offset="0%" stop-color="#FFD154" stop-opacity="1"/><stop offset="99.28571581840515%" stop-color="#D8D8D8" stop-opacity="1"/></linearGradient><linearGradient x1="0.5" y1="0" x2="0.5" y2="1" id="master_svg1_10_7240"><stop offset="0%" stop-color="#5EF313" stop-opacity="1"/><stop offset="100%" stop-color="#53AA28" stop-opacity="1"/></linearGradient><linearGradient x1="0.5" y1="0" x2="0.5" y2="1" id="master_svg2_10_7240"><stop offset="0%" stop-color="#5EF313" stop-opacity="1"/><stop offset="100%" stop-color="#53AA28" stop-opacity="1"/></linearGradient><linearGradient x1="0.5" y1="0" x2="0.5" y2="1" id="master_svg3_10_7240"><stop offset="0%" stop-color="#5EF313" stop-opacity="1"/><stop offset="100%" stop-color="#53AA28" stop-opacity="1"/></linearGradient><linearGradient x1="0.5" y1="0" x2="0.5" y2="1" id="master_svg4_10_7240"><stop offset="0%" stop-color="#5EF313" stop-opacity="1"/><stop offset="100%" stop-color="#53AA28" stop-opacity="1"/></linearGradient><linearGradient x1="0.1802798956632614" y1="0.1100374087691307" x2="0.7833956714229624" y2="0.9605060775267545" id="master_svg5_10_7248"><stop offset="0%" stop-color="#FFFFFF" stop-opacity="1"/><stop offset="100%" stop-color="#D4D3D3" stop-opacity="0"/></linearGradient><linearGradient x1="0.1802798956632614" y1="0.1100374087691307" x2="0.7833956714229624" y2="0.9605060775267545" id="master_svg6_10_7248"><stop offset="0%" stop-color="#FFFFFF" stop-opacity="1"/><stop offset="100%" stop-color="#D4D3D3" stop-opacity="0"/></linearGradient></defs><g><g><g transform="matrix(0.980646014213562,-0.19578909873962402,0.17365023493766785,0.9848073720932007,-3.9543588469433644,1.5907776896870018)"><path d="M84.63140576171875,23.47449302026836Q84.11650576171876,25.58797400756836,83.40080576171874,27.63477400756836Q82.68510576171875,29.68158400756836,81.77620576171876,31.64036400756836Q80.86720576171875,33.59911400756836,79.77450576171876,35.44951400756836Q78.68180576171875,37.29981400756836,77.41670576171875,39.02241400756836Q78.36590576171875,39.759914007568355,79.29370576171875,40.52421400756836Q80.22150576171875,41.28851400756836,81.12730576171874,42.07901400756836Q82.03300576171875,42.86961400756836,82.91590576171875,43.685714007568365Q83.79890576171876,44.50191400756836,84.65830576171875,45.34291400756836Q85.51770576171874,46.18401400756836,86.35290576171874,47.049314007568356Q87.18810576171875,47.914714007568364,87.99840576171874,48.80351400756836Q88.80860576171875,49.69241400756836,89.59330576171875,50.604114007568356Q90.37800576171875,51.51581400756836,91.13660576171876,52.44951400756836Q91.89510576171875,53.38331400756836,92.62680576171876,54.33841400756836Q93.35850576171875,55.29351400756836,94.06270576171875,56.26911400756836Q94.76700576171875,57.24481400756836,95.44330576171875,58.24021400756836Q96.11960576171874,59.23561400756836,96.76740576171875,60.24991400756836Q97.41510576171875,61.26431400756836,98.03390576171876,62.29671400756836Q98.65260576171875,63.32921400756836,99.24170576171875,64.37891400756837Q99.83080576171875,65.42871400756836,100.38990576171875,66.49491400756835Q100.94900576171875,67.56101400756836,101.47760576171875,68.64281400756836Q102.00620576171875,69.72451400756836,102.50390576171876,70.82101400756835Q103.00160576171875,71.91741400756837,103.46790576171875,73.02761400756836Q103.93430576171875,74.13781400756835,104.36890576171875,75.26091400756836Q104.80360576171876,76.38411400756836,105.20610576171875,77.51921400756837Q105.60870576171875,78.65421400756836,105.97890576171875,79.80041400756835Q106.34940576171876,80.94651400756837,106.68640576171875,82.10281400756836Q107.02440576171875,83.25911400756836,107.32840576171876,84.42461400756835Q107.63340576171875,85.59001400756836,107.90440576171875,86.76371400756835Q108.17540576171875,87.93751400756835,108.41340576171875,89.11841400756836Q108.65140576171875,90.29941400756836,108.85540576171876,91.48681400756836Q109.06040576171876,92.67411400756836,109.23040576171876,93.86681400756837Q109.40140576171875,95.05941400756836,109.53740576171874,96.25651400756836Q109.67440576171875,97.45361400756836,109.77640576171875,98.65411400756835Q109.87940576171874,99.85461400756836,109.94740576171876,101.05751400756836Q110.01640576171874,102.26051400756836,110.05040576171875,103.46491400756835Q110.08440576171876,104.66931400756836,110.08440576171876,105.87421400756836Q110.08440576171876,107.33371400756836,110.03440576171874,108.79241400756835Q109.98440576171875,110.25111400756836,109.88340576171875,111.70721400756835Q109.78340576171875,113.16331400756836,109.63340576171875,114.61511400756837Q109.48240576171875,116.06681400756835,109.28240576171875,117.51251400756836Q109.08240576171875,118.95811400756835,108.83240576171875,120.39601400756835Q108.58340576171875,121.83391400756835,108.28340576171875,123.26221400756836Q107.98440576171875,124.69051400756835,107.63640576171875,126.10751400756835Q107.28840576171875,127.52451400756836,106.89240576171875,128.92951400756834Q106.49540576171874,130.33351400756834,106.05120576171875,131.72351400756835Q105.60670576171874,133.11251400756836,105.11460576171875,134.48651400756836Q104.62250576171876,135.85951400756835,104.08350576171875,137.21551400756834Q103.54450576171875,138.57051400756836,102.95910576171875,139.90651400756838Q102.37380576171876,141.24251400756836,101.74290576171875,142.55751400756836Q101.11200576171875,143.87251400756836,100.43630576171876,145.16551400756836Q99.76050576171875,146.45751400756836,99.04070576171875,147.72551400756836Q98.32100576171875,148.99351400756836,97.55800576171875,150.23651400756836Q96.79500576171876,151.47851400756835,95.98980576171876,152.69351400756835Q95.18460576171876,153.90951400756836,94.33800576171875,155.09551400756837Q93.49150576171876,156.28251400756835,92.60460576171874,157.43851400756836Q91.71780576171875,158.59551400756837,90.79170576171875,159.72051400756837Q89.86560576171875,160.84551400756837,88.90140576171875,161.93851400756836Q87.93720576171874,163.03051400756837,86.93600576171875,164.08851400756836Q85.93470576171875,165.14751400756836,84.89770576171875,166.17051400756836Q83.86070576171875,167.19351400756835,82.78920576171875,168.17951400756837Q81.71760576171874,169.16651400756837,80.61270576171874,170.11451400756835Q79.50790576171875,171.06351400756836,78.37110576171875,171.97351400756835Q77.23430576171874,172.88351400756835,76.06680576171875,173.75351400756836Q74.89940576171875,174.62351400756836,73.70280576171875,175.45151400756836Q72.50610576171874,176.28051400756837,71.28170576171875,177.06751400756835Q70.05720576171875,177.85451400756835,68.80650576171875,178.59851400756835Q67.55570576171874,179.34351400756836,66.28010576171874,180.04351400756835Q65.00450576171875,180.74351400756836,63.70560576171875,181.39951400756837Q65.35530576171875,180.99651400756835,66.98770576171876,180.52051400756835Q68.62000576171874,180.04551400756836,70.23210576171874,179.49751400756836Q71.84420576171875,178.94951400756835,73.43310576171875,178.33051400756835Q75.02200576171875,177.71051400756835,76.58500576171875,177.02151400756836Q78.14800576171875,176.33251400756836,79.68220576171875,175.57351400756835Q81.21650576171875,174.81551400756837,82.71940576171875,173.98951400756835Q84.22220576171875,173.16351400756835,85.69100576171876,172.27151400756836Q87.15980576171874,171.37951400756836,88.59200576171875,170.42251400756837Q90.02410576171874,169.46651400756835,91.41710576171874,168.44651400756837Q92.81000576171876,167.42651400756836,94.16140576171875,166.34651400756837Q95.51270576171875,165.26551400756836,96.82000576171875,164.12551400756837Q98.12730576171874,162.98551400756836,99.38820576171875,161.78851400756835Q100.64920576171875,160.59151400756835,101.86160576171875,159.33951400756837Q103.07400576171875,158.08751400756836,104.23570576171875,156.78251400756835Q105.39740576171874,155.47751400756835,106.50640576171875,154.12151400756835Q107.61540576171875,152.76651400756836,108.66940576171875,151.36251400756836Q109.72340576171875,149.95851400756834,110.72140576171876,148.50951400756836Q111.71940576171875,147.06051400756837,112.65840576171875,145.56751400756838Q113.59740576171875,144.07551400756836,114.47740576171876,142.54251400756834Q115.35640576171875,141.00951400756836,116.17440576171875,139.43851400756836Q116.99240576171874,137.86751400756836,117.74740576171875,136.26151400756837Q118.50240576171875,134.65551400756834,119.19240576171875,133.01751400756837Q119.88340576171875,131.37951400756836,120.50840576171875,129.71251400756836Q121.13340576171875,128.04551400756836,121.69140576171876,126.35151400756835Q122.24940576171875,124.65851400756836,122.74040576171875,122.94111400756836Q123.23140576171875,121.22421400756836,123.65340576171874,119.48691400756836Q124.07540576171876,117.74961400756835,124.42840576171875,115.99501400756836Q124.78140576171874,114.24041400756836,125.06540576171875,112.47171400756837Q125.34840576171875,110.70301400756836,125.56140576171875,108.92321400756836Q125.77340576171875,107.14341400756835,125.91540576171874,105.35571400756837Q126.05840576171875,103.56811400756835,126.12940576171874,101.77561400756836Q126.20040576171876,99.98321400756836,126.20040576171876,98.18921400756835Q126.20040576171876,96.76761400756835,126.15540576171875,95.34671400756837Q126.11040576171875,93.92591400756837,126.02140576171875,92.50741400756836Q125.93240576171875,91.08901400756837,125.79840576171875,89.67441400756836Q125.66440576171875,88.25991400756836,125.48640576171876,86.85081400756836Q125.30840576171875,85.44181400756835,125.08640576171875,84.03981400756837Q124.86340576171875,82.63791400756836,124.59740576171875,81.24451400756837Q124.33140576171876,79.85111400756836,124.02140576171875,78.46801400756836Q123.71140576171875,77.08481400756835,123.35840576171876,75.71331400756836Q123.00540576171875,74.34181400756836,122.60940576171875,72.98351400756836Q122.21340576171875,71.62521400756836,121.77540576171874,70.28171400756835Q121.33640576171875,68.93811400756836,120.85640576171875,67.61081400756837Q120.37540576171875,66.28341400756835,119.85340576171875,64.97381400756836Q119.33240576171875,63.66411400756836,118.76940576171874,62.37361400756836Q118.20640576171876,61.08301400756836,117.60340576171875,59.81311400756836Q117.00040576171875,58.54311400756836,116.35840576171876,57.29511400756836Q115.71540576171876,56.04721400756836,115.03440576171874,54.82251400756836Q114.35340576171875,53.59791400756836,113.63340576171875,52.398014007568364Q112.91440576171875,51.19801400756836,112.15740576171875,50.02421400756836Q111.40040576171874,48.85031400756836,110.60740576171875,47.703814007568354Q109.81440576171875,46.55721400756836,108.98540576171875,45.439314007568356Q108.15640576171874,44.321414007568364,107.29340576171874,43.233414007568356Q106.43040576171875,42.14531400756836,105.53280576171875,41.08831400756836Q104.63570576171875,40.031314007568355,103.70590576171875,39.006514007568356Q102.77600576171875,37.98181400756836,101.81450576171875,36.99041400756836Q100.85300576171875,35.99901400756836,99.86090576171875,35.04201400756836Q98.86880576171875,34.08511400756836,97.84710576171875,33.16371400756836Q96.82550576171874,32.24231400756836,95.77550576171875,31.357454007568357Q94.72550576171875,30.47260400756836,93.64830576171875,29.62528400756836Q92.57110576171875,28.77795400756836,91.46780576171875,27.969104007568358Q90.36460576171875,27.16025400756836,89.23650576171875,26.390764007568357Q88.10850576171875,25.62127400756836,86.95690576171874,24.89200400756836Q85.80530576171876,24.162735007568358,84.63140576171875,23.47449302026836ZM6.63644476171875,23.57681900756836Q6.62385576171875,23.52567400756836,6.61138576171875,23.47449599086836Q6.45717976171875,23.56490780756836,6.30334942261875,23.65603400756836Q6.46981676171875,23.61608600756836,6.63644476171875,23.57681900756836Z" fill-rule="evenodd" fill="url(#master_svg0_10_7230)" fill-opacity="1"/></g></g><g><g transform="matrix(-0.3920607268810272,-0.9199393391609192,0.8780079483985901,-0.4786459803581238,-85.27860113358724,287.4760713553892)"><g transform="matrix(0.8114373087882996,0.5844394564628601,-0.5844395160675049,0.8114373087882996,115.71019297003483,-28.041522654538255)"><path d="M122.5056569519043,260.0430479862213Q119.7911569519043,257.8880479862213,117.37135695190429,255.42644798622132Q116.3652569519043,254.40284798622133,115.41415695190429,253.33014798622133Q114.4629569519043,252.2573479862213,113.5690569519043,251.13784798622132Q112.6750569519043,250.01834798622133,111.8402569519043,248.85464798622132Q111.0055069519043,247.69094798622132,110.2318369519043,246.4856479862213Q109.4581669519043,245.28034798622133,108.7473569519043,244.03624798622133Q108.0365469519043,242.79214798622132,107.39021695190429,241.5121479862213Q106.7438969519043,240.23204798622132,106.1635269519043,238.91894798622133Q105.5831569519043,237.6058479862213,105.0700669519043,236.2626479862213Q104.5569769519043,234.91944798622131,104.1123369519043,233.5492479862213Q103.6676969519043,232.17904798622132,103.2925169519043,230.78504798622131Q102.9173369519043,229.3909479862213,102.6124769519043,227.97614798622132Q102.3076169519043,226.5614479862213,102.0737669519043,225.1291479862213Q101.8399179519043,223.69694798622132,101.6776129519043,222.2504479862213Q101.5153089519043,220.80404798622132,101.4249189519043,219.3466479862213Q101.3345299519043,217.8892479862213,101.3162615219043,216.4243479862213Q101.2979930519043,214.9593479862213,101.3518872519043,213.4901479862213Q101.3828773519043,212.6453479862213,101.4377049519043,211.7999479862213Q101.4925329519043,210.9545479862213,101.5711559519043,210.1093479862213Q101.64977995190429,209.26404798622133,101.7521399519043,208.41954798622132Q101.8545009519043,207.5749479862213,101.9805209519043,206.7318479862213Q102.1065409519043,205.88864798622132,102.2561259519043,205.0475479862213Q102.40570695190429,204.20644798622132,102.5787469519043,203.3679479862213Q102.7517869519043,202.52944798622133,102.9481369519043,201.6942479862213Q103.1444969519043,200.8590479862213,103.3640269519043,200.0277479862213Q103.5835669519043,199.19634798622133,103.8261069519043,198.3696479862213Q104.0686369519043,197.54284798622132,104.3340069519043,196.72124798622133Q104.5993669519043,195.8996479862213,104.8873569519043,195.0837479862213Q105.1753469519043,194.26794798622132,105.4857469519043,193.4584479862213Q105.79614695190429,192.64904798622132,106.1287169519043,191.8466479862213Q106.4612869519043,191.0441479862213,106.8157769519043,190.24934798622132Q107.1702769519043,189.4544479862213,107.5464269519043,188.66784798622132Q107.92257695190429,187.88124798622133,108.3200969519043,187.1033479862213Q108.71761695190429,186.32554798622132,109.1362169519043,185.5571479862213Q109.5548069519043,184.78864798622132,109.9941569519043,184.03014798622132Q110.43350695190429,183.27164798622132,110.8932869519043,182.5237479862213Q111.35305695190429,181.77584798622132,111.8329569519043,181.0389479862213Q112.31275695190429,180.3021479862213,112.81235695190429,179.5769479862213Q113.31195695190429,178.8517479862213,113.8308569519043,178.13874798622132Q114.3497569519043,177.42574798622132,114.88765695190429,176.7255479862213Q115.4254569519043,176.0252479862213,115.98185695190429,175.33834798622132Q116.53835695190429,174.6513379862213,117.11285695190429,173.97813798622133Q117.68735695190429,173.30495798622132,118.2795569519043,172.6460579862213Q118.87185695190429,171.98715798622132,119.4812569519043,171.3430579862213Q120.0907569519043,170.6989479862213,120.7170569519043,170.0701179862213Q121.3432569519043,169.44129798622131,121.9858569519043,168.82821798622132Q122.6284569519043,168.21513798622132,123.2868569519043,167.61826798622133Q123.9451569519043,167.0213979862213,124.6189569519043,166.4411979862213Q125.29265695190429,165.8609929862213,125.9812569519043,165.29788908412132Q128.6957569519043,167.4528179862213,131.1154569519043,169.9144979862213Q132.1216569519043,170.9380479862213,133.0727569519043,172.01079798622132Q134.0238569519043,173.0835479862213,134.9178569519043,174.20305798622132Q135.8118569519043,175.3225479862213,136.6465569519043,176.48624798622131Q137.4813569519043,177.65004798622132,138.2550569519043,178.85524798622131Q139.02865695190428,180.0605479862213,139.7394569519043,181.3046479862213Q140.4503569519043,182.54874798622131,141.0966569519043,183.82874798622132Q141.7429569519043,185.10884798622132,142.3233569519043,186.4219479862213Q142.90365695190428,187.7350479862213,143.4167569519043,189.0782479862213Q143.9298569519043,190.42144798622132,144.3745569519043,191.7916479862213Q144.8191569519043,193.16184798622132,145.1943569519043,194.55584798622132Q145.5695569519043,195.9499479862213,145.8743569519043,197.36474798622132Q146.1792569519043,198.77944798622133,146.4130569519043,200.21174798622133Q146.6469569519043,201.64394798622132,146.8092569519043,203.0904479862213Q146.9715569519043,204.53684798622132,147.0619569519043,205.9942479862213Q147.1523569519043,207.4516479862213,147.1705569519043,208.9165479862213Q147.1888569519043,210.3815479862213,147.13495695190431,211.8507479862213Q147.1039569519043,212.6955479862213,147.0491569519043,213.5409479862213Q146.9943569519043,214.38634798622132,146.91565695190428,215.2315479862213Q146.8370569519043,216.0768479862213,146.7347569519043,216.92134798622132Q146.63235695190428,217.7659479862213,146.5063569519043,218.6090479862213Q146.3803569519043,219.45224798622132,146.2307569519043,220.2933479862213Q146.0811569519043,221.13444798622132,145.9081569519043,221.9729479862213Q145.7350569519043,222.8114479862213,145.5387569519043,223.6466479862213Q145.3423569519043,224.4818479862213,145.12285695190428,225.3132479862213Q144.9032569519043,226.1445479862213,144.6607569519043,226.97124798622133Q144.4182569519043,227.79804798622132,144.1528569519043,228.6196479862213Q143.8874569519043,229.4412479862213,143.5994569519043,230.2571479862213Q143.3115569519043,231.07294798622132,143.0011569519043,231.8824479862213Q142.6907569519043,232.69184798622132,142.3581569519043,233.4942479862213Q142.0255569519043,234.2967479862213,141.6710569519043,235.09154798622131Q141.3165569519043,235.8864479862213,140.9404569519043,236.67304798622132Q140.5642569519043,237.4596479862213,140.1667569519043,238.23754798622133Q139.7692569519043,239.01534798622131,139.35065695190428,239.7838479862213Q138.9320569519043,240.55224798622132,138.49265695190428,241.31074798622132Q138.0533569519043,242.0692479862213,137.5935569519043,242.8171479862213Q137.1337569519043,243.56514798622132,136.6539569519043,244.3019479862213Q136.1740569519043,245.03874798622132,135.6744569519043,245.7639479862213Q135.1749569519043,246.48914798622133,134.6559569519043,247.20214798622132Q134.1370569519043,247.9151479862213,133.5992569519043,248.6153479862213Q133.0613569519043,249.3156479862213,132.5049569519043,250.00254798622132Q131.9485569519043,250.68954798622133,131.3740569519043,251.3627479862213Q130.7994569519043,252.03594798622132,130.2072569519043,252.6948479862213Q129.6150569519043,253.35374798622132,129.00555695190428,253.9978479862213Q128.39605695190428,254.6419479862213,127.7698569519043,255.2707479862213Q127.1435569519043,255.8996479862213,126.5009569519043,256.5127479862213Q125.8584569519043,257.1257479862213,125.2000569519043,257.7226479862213Q124.5416569519043,258.31944798622135,123.86795695190429,258.8997479862213Q123.19415695190429,259.4799479862213,122.5056569519043,260.0430479862213Z" fill-rule="evenodd" fill="url(#master_svg1_10_7240)" fill-opacity="1"/></g></g><g transform="matrix(-0.08475396782159805,-0.9964019656181335,0.9940617680549622,-0.10827454179525375,-69.43636643818647,189.92521595978496)"><g transform="matrix(0.8114373087882996,0.5844394564628601,-0.5844395160675049,0.8114373087882996,92.2947862939078,-40.453641155341955)"><path d="M129.22668680419923,216.7861228553772Q126.31908680419922,214.5336228553772,123.76828680419922,211.9183228553772Q122.80168680419922,210.9273228553772,121.89048680419921,209.8880228553772Q120.97928680419922,208.8488228553772,120.12538680419922,207.7636228553772Q119.27148680419921,206.6784228553772,118.47683680419922,205.54972285537718Q117.68219680419922,204.4210228553772,116.94856680419922,203.2513228553772Q116.21494680419922,202.0816228553772,115.54395680419921,200.8735228553772Q114.87297680419923,199.6653228553772,114.26612680419922,198.4215228553772Q113.65926680419922,197.1776228553772,113.11789680419922,195.9008228553772Q112.57652680419922,194.62402285537718,112.10184680419921,193.31702285537722Q111.62716680419922,192.01012285537718,111.22021680419923,190.6759228553772Q110.81327680419922,189.3418228553772,110.47497680419922,187.9833228553772Q110.13668680419921,186.6249228553772,109.86778680419921,185.2452228553772Q109.59888180419922,183.86562285537718,109.39997580419922,182.4677228553772Q109.20106980419922,181.0699228553772,109.07260080419921,179.6570228553772Q108.94413280419921,178.2441228553772,108.88638620419921,176.8193228553772Q108.82863990419922,175.3945228553772,108.84174455419922,173.9609228553772Q108.85484920419921,172.5273228553772,108.93877550419921,171.08822285537718Q108.98764680419922,170.25012285537719,109.06049280419921,169.4111228553772Q109.13333880419921,168.5720228553772,109.23010380419922,167.7325228553772Q109.32686780419922,166.89312285537721,109.44747880419922,166.0538228553772Q109.56808980419922,165.2146228553772,109.71245580419922,164.3762228553772Q109.85681680419921,163.5379228553772,110.02483680419923,162.7010228553772Q110.19284680419922,161.8641228553772,110.38437680419922,161.0294228553772Q110.57590680419922,160.1947228553772,110.79081680419922,159.3627228553772Q111.00572680419921,158.5307228553772,111.24384680419922,157.70212285537718Q111.48196680419922,156.8735228553772,111.74311680419922,156.0489228553772Q112.00426680419922,155.2244228553772,112.28826680419922,154.4044228553772Q112.57225680419921,153.5845228553772,112.87886680419922,152.76982285537719Q113.18547680419923,151.9551228553772,113.51448680419922,151.1463228553772Q113.84348680419922,150.3375228553772,114.19463680419922,149.5351228553772Q114.54578680419922,148.7328228553772,114.91880680419922,147.9375228553772Q115.29183680419922,147.1422228553772,115.68645680419922,146.3546228553772Q116.08108680419922,145.5670228553772,116.49700680419922,144.78772285537718Q116.91292680419922,144.0084228553772,117.34983680419921,143.2380228553772Q117.78674680419923,142.46752285537718,118.24431680419922,141.7065228553772Q118.70188680419922,140.9455228553772,119.17978680419922,140.1945228553772Q119.65768680419922,139.44352285537718,120.15548680419921,138.7031228553772Q120.65328680419921,137.9627228553772,121.17068680419922,137.2334228553772Q121.68808680419922,136.5042228553772,122.22468680419922,135.7866228553772Q122.76128680419922,135.0690228553772,123.31668680419922,134.3637228553772Q123.87208680419921,133.6583228553772,124.44578680419922,132.9658228553772Q125.01948680419922,132.2731928553772,125.61118680419922,131.5939028553772Q126.20288680419922,130.9146128553772,126.81198680419922,130.2491128553772Q127.42118680419922,129.5836228553772,128.04728680419922,128.93242285537718Q128.67348680419923,128.2812228553772,129.31618680419922,127.6448228553772Q129.9589868041992,127.00842285537719,130.61778680419923,126.3872828553772Q131.2765868041992,125.7661528553772,131.95088680419923,125.1607528553772Q132.62528680419922,124.5553628553772,133.31468680419923,123.96616285537719Q134.00408680419923,123.3769648553772,134.7080868041992,122.8044062831772Q137.61578680419922,125.0569728553772,140.16658680419923,127.67224285537719Q141.13308680419922,128.6632428553772,142.0442868041992,129.70248285537718Q142.9555868041992,130.7417228553772,143.80948680419922,131.8269028553772Q144.66328680419923,132.9121228553772,145.4579868041992,134.0408228553772Q146.2525868041992,135.1695228553772,146.9862868041992,136.3392228553772Q147.71988680419923,137.5089228553772,148.39088680419923,138.7170228553772Q149.06188680419922,139.9251228553772,149.6686868041992,141.1690228553772Q150.27558680419924,142.4128228553772,150.8168868041992,143.6897228553772Q151.35828680419922,144.9665228553772,151.8329868041992,146.2734228553772Q152.30768680419922,147.5804228553772,152.71458680419923,148.9146228553772Q153.1215868041992,150.2487228553772,153.4597868041992,151.6072228553772Q153.79808680419922,152.9656228553772,154.06698680419922,154.3453228553772Q154.33588680419922,155.7249228553772,154.53488680419923,157.1228228553772Q154.7337868041992,158.5206228553772,154.8621868041992,159.9335228553772Q154.9906868041992,161.3464228553772,155.04838680419923,162.7712228553772Q155.1061868041992,164.19602285537718,155.09308680419923,165.6296228553772Q155.07998680419922,167.0632228553772,154.99608680419922,168.5023228553772Q154.94718680419922,169.3404228553772,154.87428680419922,170.1794228553772Q154.80148680419921,171.0185228553772,154.7046868041992,171.85802285537721Q154.60798680419921,172.6974228553772,154.48728680419921,173.5367228553772Q154.36668680419922,174.3759228553772,154.22238680419923,175.2143228553772Q154.0779868041992,176.0526228553772,153.9099868041992,176.8895228553772Q153.74198680419923,177.7264228553772,153.5504868041992,178.5611228553772Q153.35888680419922,179.3958228553772,153.14398680419922,180.2278228553772Q152.92908680419922,181.0598228553772,152.6909868041992,181.8884228553772Q152.4528868041992,182.7170228553772,152.1916868041992,183.5416228553772Q151.9305868041992,184.3661228553772,151.64658680419922,185.1861228553772Q151.36258680419922,186.00602285537718,151.05598680419922,186.8207228553772Q150.74928680419922,187.63542285537721,150.42028680419924,188.44422285537718Q150.09128680419923,189.2530228553772,149.74018680419923,190.0554228553772Q149.38898680419922,190.85772285537718,149.0159868041992,191.6530228553772Q148.6429868041992,192.4483228553772,148.2483868041992,193.2359228553772Q147.8536868041992,194.0234228553772,147.43778680419922,194.8028228553772Q147.02188680419923,195.58212285537718,146.58498680419922,196.3525228553772Q146.1480868041992,197.1230228553772,145.69048680419922,197.8840228553772Q145.2328868041992,198.6450228553772,144.7550868041992,199.3960228553772Q144.27718680419923,200.1470228553772,143.77938680419922,200.8874228553772Q143.28148680419923,201.6278228553772,142.76408680419922,202.3571228553772Q142.24668680419921,203.0863228553772,141.71008680419922,203.8039228553772Q141.17348680419923,204.5215228553772,140.6181868041992,205.22682285537718Q140.06278680419922,205.93222285537718,139.48898680419921,206.6247228553772Q138.9152868041992,207.3173228553772,138.3235868041992,207.9966228553772Q137.7319868041992,208.6759228553772,137.12278680419922,209.3414228553772Q136.5136868041992,210.00692285537718,135.88748680419923,210.6581228553772Q135.26128680419922,211.30932285537722,134.61858680419923,211.9457228553772Q133.9758868041992,212.58212285537718,133.31708680419922,213.2032228553772Q132.6582868041992,213.82442285537718,131.98388680419922,214.4298228553772Q131.30958680419923,215.03522285537719,130.62008680419922,215.6244228553772Q129.9306868041992,216.2136228553772,129.22668680419923,216.7861228553772Z" fill-rule="evenodd" fill="url(#master_svg2_10_7240)" fill-opacity="1"/></g></g><g transform="matrix(0.8456444144248962,0.5337467193603516,-0.4424939751625061,0.8967714905738831,34.51202743369106,-97.55297167772244)"><g transform="matrix(0.8114373087882996,0.5844394564628601,-0.5844395160675049,0.8114373087882996,53.941426302581334,-137.70824273357354)"><path d="M267.851299432373,108.38488643627167Q268.92449943237307,107.32298643627166,269.940999432373,106.20468643627167Q270.95739943237305,105.08628643627166,271.9144994323731,103.91428643627167Q272.871699432373,102.74218643627167,273.767099432373,101.51938643627167Q274.66249943237307,100.29658643627167,275.49389943237304,99.02608643627167Q276.32539943237305,97.75558643627167,277.090899432373,96.44058643627167Q277.856299432373,95.12548643627167,278.55389943237304,93.76918643627167Q279.25139943237303,92.41288643627166,279.87929943237305,91.01858643627166Q280.50719943237306,89.62438643627166,281.06389943237303,88.19578643627166Q281.62049943237304,86.76708643627167,282.10459943237305,85.30758643627166Q282.58869943237306,83.84808643627167,282.99889943237304,82.36128643627167Q283.40919943237304,80.87458643627167,283.74459943237304,79.36428643627167Q284.08009943237306,77.85398643627167,284.33979943237307,76.32398643627167Q284.59959943237305,74.79388643627166,284.78299943237306,73.24788643627167Q284.96649943237304,71.70188643627166,285.07319943237303,70.14368643627166Q285.1798994323731,68.58558643627167,285.20949943237304,67.01918643627167Q285.23909943237305,65.45288643627167,285.19169943237307,63.88218643627167Q285.165599432373,63.018086436271666,285.11609943237306,62.15358643627167Q285.06669943237307,61.28918643627167,284.993999432373,60.424986436271666Q284.9212994323731,59.56078643627167,284.82539943237305,58.69748643627167Q284.72939943237304,57.834186436271665,284.61029943237304,56.97238643627167Q284.49129943237307,56.11068643627167,284.34909943237307,55.25118643627167Q284.20699943237304,54.39168643627167,284.04189943237304,53.534986436271666Q283.876699432373,52.67828643627167,283.68879943237306,51.825186436271665Q283.50089943237305,50.97198643627167,283.290199432373,50.12298643627167Q283.079599432373,49.27398643627167,282.84639943237306,48.429686436271666Q282.613299432373,47.585486436271665,282.35779943237304,46.746686436271666Q282.102199432373,45.90788643627167,281.824599432373,45.07508643627167Q281.54689943237304,44.24238643627167,281.24719943237307,43.41628643627167Q280.94759943237307,42.590186436271665,280.626199432373,41.77148643627167Q280.3048994323731,40.95268643627166,279.96199943237303,40.14188643627167Q279.619199432373,39.33098643627167,279.2550994323731,38.52868643627167Q278.89099943237306,37.72638643627167,278.5059994323731,36.93328643627167Q278.120999432373,36.140086436271666,277.71529943237306,35.356686436271666Q277.30959943237303,34.57328643627167,276.88359943237305,33.800186436271666Q276.457499432373,33.02708643627167,276.011399432373,32.26488643627167Q275.565299432373,31.502686436271667,275.09959943237305,30.751986436271668Q274.63379943237305,30.00128643627167,274.14859943237303,29.26258643627167Q273.66349943237304,28.523986436271667,273.15939943237305,27.797886436271668Q272.65529943237306,27.07188643627167,272.13259943237307,26.358986436271667Q271.609899432373,25.646086436271666,271.06889943237303,24.94688643627167Q270.52799943237306,24.247736436271666,269.969299432373,23.562766436271666Q269.41059943237303,22.87778643627167,268.83449943237304,22.207556436271666Q268.25839943237304,21.537316436271666,267.66529943237305,20.88232643627167Q267.07229943237303,20.227336436271667,266.46269943237303,19.588076436271667Q265.85319943237306,18.948816436271667,265.22759943237304,18.325776436271667Q264.6019994323731,17.702736436271667,263.960899432373,17.09638643627167Q263.31969943237306,16.490026436271666,262.66349943237304,15.900826436271668Q262.00719943237306,15.311614436271668,261.33639943237307,14.739994819771667Q259.47439943237305,16.291776436271668,257.74979943237304,17.998076436271667Q256.67659943237305,19.05997643627167,255.66009943237304,20.178336436271668Q254.64369943237304,21.296696436271667,253.68659943237304,22.468726436271666Q252.72939943237304,23.64076643627167,251.83399943237305,24.863586436271667Q250.93859943237305,26.086386436271667,250.10713943237306,27.356886436271665Q249.27566943237304,28.627386436271667,248.51020943237305,29.94238643627167Q247.74474943237306,31.257486436271666,247.04720943237305,32.61378643627167Q246.34965943237304,33.97008643627167,245.72176943237304,35.36438643627167Q245.09387943237306,36.75858643627167,244.53720943237306,38.187186436271666Q243.98053943237304,39.615886436271666,243.49646943237303,41.07538643627167Q243.01240943237303,42.53488643627166,242.60214943237304,44.021686436271665Q242.19188943237305,45.508386436271664,241.85645943237304,47.018686436271665Q241.52102943237304,48.528986436271666,241.26126643237305,50.05898643627167Q241.00150343237306,51.589086436271664,240.81805243237304,53.13508643627167Q240.63460143237305,54.68108643627167,240.52791943237304,56.23928643627167Q240.42123743237303,57.797386436271665,240.39159033237306,59.36378643627167Q240.36194323237305,60.930086436271665,240.40940473237305,62.50078643627167Q240.43551423237304,63.36488643627167,240.48494143237303,64.22928643627166Q240.53436943237304,65.09378643627167,240.60707743237305,65.95798643627167Q240.67978543237305,66.82218643627166,240.77571943237305,67.68548643627167Q240.87165243237305,68.54878643627167,240.99074043237306,69.41048643627167Q241.10982743237304,70.27228643627167,241.25197843237305,71.13178643627167Q241.39412943237303,71.99128643627166,241.55923943237303,72.84798643627167Q241.72434943237306,73.70468643627166,241.91228943237306,74.55778643627167Q242.10022943237306,75.41098643627167,242.31085943237304,76.25998643627167Q242.52148943237304,77.10898643627166,242.75464943237304,77.95328643627167Q242.98780943237304,78.79748643627167,243.24332943237306,79.63628643627166Q243.49883943237305,80.47508643627167,243.77652943237305,81.30788643627167Q244.05420943237306,82.14058643627166,244.35383943237304,82.96668643627167Q244.65347943237305,83.79268643627167,244.97483943237305,84.61148643627166Q245.29619943237304,85.43028643627167,245.63904943237304,86.24108643627167Q245.98189943237304,87.05188643627167,246.34596943237304,87.85428643627166Q246.71004943237304,88.65658643627167,247.09507943237304,89.44968643627166Q247.48010943237304,90.24288643627166,247.88579943237303,91.02628643627166Q248.29148943237306,91.80968643627166,248.71753943237306,92.58278643627166Q249.14357943237306,93.35588643627166,249.58966943237306,94.11808643627167Q250.03574943237305,94.88028643627166,250.50149943237304,95.63098643627167Q250.96729943237304,96.38168643627166,251.45239943237306,97.12028643627167Q251.93759943237305,97.85898643627166,252.44169943237304,98.58498643627166Q252.94579943237304,99.31108643627167,253.46849943237305,100.02398643627167Q253.99119943237304,100.73688643627166,254.53219943237303,101.43608643627167Q255.07309943237306,102.13518643627167,255.63179943237304,102.82018643627167Q256.19049943237303,103.50518643627167,256.766599432373,104.17538643627167Q257.342699432373,104.84568643627166,257.9357994323731,105.50068643627166Q258.52879943237303,106.15568643627167,259.13839943237303,106.79488643627167Q259.74789943237306,107.43418643627167,260.373499432373,108.05718643627166Q260.99909943237304,108.68018643627167,261.64019943237304,109.28658643627166Q262.28139943237306,109.89288643627167,262.9375994323731,110.48218643627166Q263.59389943237306,111.07138643627167,264.26469943237305,111.64298643627167Q266.1266994323731,110.09118643627167,267.851299432373,108.38488643627167Z" fill-rule="evenodd" fill="url(#master_svg3_10_7240)" fill-opacity="1"/></g></g><g><g transform="matrix(0.8114373087882996,0.5844394564628601,-0.5844395160675049,0.8114373087882996,36.520902963501214,-99.91344532725098)"><path d="M201.0685107421875,101.66651938056945Q202.1316107421875,100.62601938056946,203.1358107421875,99.52431938056945Q204.14001074218748,98.42271938056946,205.0826107421875,97.26281938056945Q206.02531074218751,96.10301938056946,206.9039107421875,94.88791938056946Q207.7826107421875,93.67281938056946,208.5951107421875,92.40561938056946Q209.4075107421875,91.13841938056946,210.1517107421875,89.82241938056946Q210.8958107421875,88.50631938056945,211.56981074218749,87.14481938056946Q212.2437107421875,85.78331938056945,212.8457107421875,84.37981938056946Q213.4476107421875,82.97631938056946,213.9761107421875,81.53451938056946Q214.5046107421875,80.09271938056946,214.9582107421875,78.61621938056946Q215.4118107421875,77.13971938056946,215.7893107421875,75.63241938056946Q216.1669107421875,74.12511938056946,216.4675107421875,72.59081938056946Q216.7680107421875,71.05651938056945,216.9908107421875,69.49921938056946Q217.21361074218748,67.94191938056946,217.3581107421875,66.36561938056946Q217.5025107421875,64.78921938056945,217.5682107421875,63.19791938056946Q217.6339107421875,61.606619380569455,217.6208107421875,60.00441938056946Q217.6076107421875,58.40231938056946,217.5156107421875,56.79341938056946Q217.4658107421875,55.92241938056946,217.3929107421875,55.05041938056946Q217.3200107421875,54.178519380569455,217.2241107421875,53.306119380569456Q217.1283107421875,52.43381938056946,217.0094107421875,51.56171938056946Q216.8906107421875,50.68961938056946,216.7490107421875,49.81841938056946Q216.6073107421875,48.94721938056946,216.4429107421875,48.077719380569455Q216.2785107421875,47.20811938056946,216.0915107421875,46.34081938056946Q215.9044107421875,45.47341938056946,215.69491074218752,44.60901938056946Q215.4854107421875,43.74451938056946,215.2536107421875,42.883619380569456Q215.02181074218748,42.022719380569455,214.7678107421875,41.16601938056946Q214.5139107421875,40.309319380569455,214.2380107421875,39.45751938056946Q213.9621107421875,38.60561938056946,213.6644107421875,37.75921938056946Q213.3668107421875,36.91291938056946,213.0476107421875,36.072619380569456Q212.7285107421875,35.23241938056945,212.3880107421875,34.39891938056946Q212.0476107421875,33.56541938056946,211.6861107421875,32.739319380569455Q211.3247107421875,31.91321938056946,210.9424107421875,31.095019380569457Q210.5602107421875,30.276919380569456,210.1576107421875,29.46751938056946Q209.7549107421875,28.658019380569456,209.3321107421875,27.857719380569456Q208.9092107421875,27.05751938056946,208.4666107421875,26.267119380569458Q208.0239107421875,25.47671938056946,207.5617107421875,24.69671938056946Q207.0996107421875,23.916719380569457,206.6182107421875,23.14781938056946Q206.1369107421875,22.37881938056946,205.6368107421875,21.62151938056946Q205.13671074218752,20.864119380569456,204.6182107421875,20.11891938056946Q204.0996107421875,19.373719380569458,203.5631107421875,18.641319380569456Q203.0265107421875,17.908819380569458,202.4723107421875,17.189719380569457Q201.9182107421875,16.470539380569456,201.3468107421875,15.765209380569457Q200.7754107421875,15.059879380569457,200.1873107421875,14.368909380569459Q199.5991107421875,13.677939380569459,198.9946107421875,13.001849380569457Q198.3901107421875,12.325759380569458,197.7698107421875,11.665059380569458Q197.1494107421875,11.004359380569458,196.5137107421875,10.359549380569458Q195.8779107421875,9.714739380569458,195.2273107421875,9.086309380569459Q194.5766107421875,8.457879380569459,193.9115107421875,7.846289380569458Q193.2464107421875,7.234706380569458,192.5673107421875,6.640432448769458Q191.0612107421875,7.906309380569458,189.6530107421875,9.284709380569458Q188.5898107421875,10.325299380569458,187.5857107421875,11.426939380569458Q186.5815107421875,12.528579380569457,185.6388107421875,13.688429380569458Q184.6962107421875,14.848289380569458,183.8175107421875,16.063379380569458Q182.9388407421875,17.27841938056946,182.1263807421875,18.545619380569455Q181.3139207421875,19.812819380569458,180.5697707421875,21.128919380569457Q179.8256107421875,22.44491938056946,179.1516907421875,23.80641938056946Q178.4777607421875,25.168019380569458,177.8757907421875,26.57141938056946Q177.2738207421875,27.974919380569457,176.7453507421875,29.416719380569457Q176.2168907421875,30.858619380569458,175.7632907421875,32.33501938056946Q175.3096907421875,33.81151938056946,174.9321207421875,35.31881938056946Q174.5545507421875,36.826219380569455,174.2539807421875,38.36041938056945Q173.9534167421875,39.894719380569455,173.7306257421875,41.45211938056946Q173.5078347421875,43.009419380569454,173.3633927421875,44.58571938056946Q173.2189507421875,46.16201938056946,173.1532285421875,47.75331938056946Q173.0875064421875,49.344619380569455,173.1006733621875,50.94681938056946Q173.1138403421875,52.549019380569455,173.2058627421875,54.15791938056946Q173.2556757421875,55.02881938056946,173.3285517421875,55.90081938056946Q173.4014277421875,56.77281938056946,173.4973117421875,57.64511938056946Q173.5931957421875,58.51751938056946,173.7120157421875,59.38961938056946Q173.8308367421875,60.26171938056946,173.9725027421875,61.13281938056946Q174.1141707421875,62.00401938056946,174.2785807421875,62.87361938056946Q174.4429807421875,63.74321938056946,174.6300007421875,64.61051938056946Q174.8170207421875,65.47781938056946,175.0265207421875,66.34231938056945Q175.2360207421875,67.20671938056947,175.4678307421875,68.06761938056945Q175.6996407421875,68.92851938056945,175.9536007421875,69.78521938056946Q176.2075507421875,70.64191938056946,176.4834607421875,71.49381938056946Q176.7593607421875,72.34561938056946,177.0570107421875,73.19201938056946Q177.3546607421875,74.03841938056947,177.6738207421875,74.87861938056946Q177.9929907421875,75.71891938056946,178.3334307421875,76.55241938056946Q178.6738707421875,77.38591938056946,179.0353407421875,78.21201938056946Q179.3968007421875,79.03811938056946,179.7790107421875,79.85621938056946Q180.1612307421875,80.67431938056946,180.5639007421875,81.48381938056946Q180.9665707421875,82.29331938056946,181.3893907421875,83.09351938056946Q181.8122207421875,83.89381938056945,182.2548907421875,84.68421938056946Q182.6975507421875,85.47461938056946,183.15971074218749,86.25451938056946Q183.6219107421875,87.03451938056946,184.1032107421875,87.80351938056945Q184.5845107421875,88.57241938056946,185.0846107421875,89.32981938056946Q185.5848107421875,90.08711938056946,186.1033107421875,90.83231938056946Q186.6218107421875,91.57751938056946,187.1584107421875,92.30991938056945Q187.6949107421875,93.04241938056946,188.2491107421875,93.76151938056945Q188.8033107421875,94.48071938056945,189.3747107421875,95.18601938056946Q189.9460107421875,95.89141938056946,190.5342107421875,96.58231938056946Q191.1223107421875,97.27331938056946,191.7268107421875,97.94941938056945Q192.3313107421875,98.62551938056946,192.9516107421875,99.28621938056946Q193.5720107421875,99.94691938056945,194.2077107421875,100.59171938056946Q194.8435107421875,101.23651938056946,195.4942107421875,101.86491938056946Q196.1448107421875,102.49341938056946,196.8100107421875,103.10501938056946Q197.4751107421875,103.71651938056945,198.1541107421875,104.31081938056946Q199.6602107421875,103.04491938056945,201.0685107421875,101.66651938056945Z" fill-rule="evenodd" fill="url(#master_svg4_10_7240)" fill-opacity="1"/></g></g></g><g><g><path d="M262.6069813437462,208.74803051757812Q262.5889813437462,210.20903051757813,262.4989813437462,211.66703051757813Q262.4099813437462,213.12603051757813,262.2499813437462,214.57803051757813Q262.08998134374616,216.03103051757813,261.8589813437462,217.47303051757814Q261.62798134374617,218.91603051757812,261.3269813437462,220.34603051757813Q261.0269813437462,221.77603051757814,260.6569813437462,223.19003051757812Q260.2869813437462,224.60403051757814,259.8489813437462,225.99703051757814Q259.40998134374615,227.39103051757812,258.90498134374616,228.76203051757813Q258.3989813437462,230.13303051757813,257.8269813437462,231.47803051757813Q257.2549813437462,232.82303051757813,256.6189813437462,234.13803051757813Q255.98198134374618,235.45303051757813,255.2819813437462,236.73603051757811Q254.58298134374618,238.01903051757813,253.82098134374618,239.26603051757812Q253.0599813437462,240.51303051757813,252.23798134374618,241.72203051757813Q251.4169813437462,242.93003051757813,250.5379813437462,244.09703051757813Q249.65898134374618,245.2650305175781,248.72398134374617,246.38803051757813Q247.78898134374617,247.51103051757812,246.80098134374617,248.5870305175781Q245.8119813437462,249.66303051757814,244.77298134374618,250.69003051757812Q243.7329813437462,251.71703051757814,242.6449813437462,252.69203051757813Q241.5559813437462,253.66703051757813,240.42198134374618,254.5870305175781Q239.2869813437462,255.50803051757813,238.1089813437462,256.3730305175781Q236.9309813437462,257.2370305175781,235.71198134374617,258.04303051757813Q234.49298134374618,258.8490305175781,233.23698134374618,259.59503051757815Q231.97998134374618,260.34103051757813,230.68898134374618,261.0250305175781Q229.39798134374618,261.7090305175781,228.0739813437462,262.32903051757813Q226.7509813437462,262.94903051757814,225.3999813437462,263.50403051757814Q224.0479813437462,264.0590305175781,222.67098134374618,264.5480305175781Q221.2939813437462,265.0360305175781,219.8939813437462,265.4570305175781Q218.4949813437462,265.8780305175781,217.07698134374618,266.23003051757814Q215.65898134374618,266.5820305175781,214.22498134374618,266.86503051757813Q212.7919813437462,267.14803051757815,211.3459813437462,267.3610305175781Q209.8999813437462,267.57403051757814,208.44598134374618,267.71603051757813Q206.99198134374618,267.85803051757813,205.5319813437462,267.9290305175781Q204.0729813437462,268.0000305175781,202.61098134374618,268.0000305175781L65.99528134374619,268.0000305175781Q64.53408134374618,268.0000305175781,63.07458134374618,267.9290305175781Q61.61508134374618,267.85803051757813,60.16078134374619,267.71603051757813Q58.706481343746184,267.57403051757814,57.26078134374619,267.3610305175781Q55.81518134374618,267.14803051757815,54.381581343746184,266.86503051757813Q52.947981343746186,266.5820305175781,51.52988134374618,266.23003051757814Q50.111681343746184,265.8780305175781,48.71238134374619,265.4570305175781Q47.313081343746184,265.0360305175781,45.935981343746185,264.5480305175781Q44.55878134374618,264.0590305175781,43.20708134374618,263.50403051757814Q41.85538134374619,262.94903051757814,40.53218134374619,262.32903051757813Q39.209081343746185,261.7090305175781,37.917781343746185,261.0250305175781Q36.62638134374619,260.34103051757813,35.36988134374619,259.59503051757815Q34.11328134374618,258.8490305175781,32.89458134374618,258.04303051757813Q31.675781343746184,257.2370305175781,30.497781343746187,256.3730305175781Q29.319681343746186,255.50803051757813,28.185081343746184,254.5870305175781Q27.050481343746185,253.66703051757813,25.962081343746185,252.69203051757813Q24.873681343746185,251.71703051757814,23.834081343746185,250.69003051757812Q22.794381343746185,249.66303051757814,21.805881343746186,248.5870305175781Q20.817481343746188,247.51103051757812,19.882581343746185,246.38803051757813Q18.947681343746183,245.2650305175781,18.068581343746185,244.09703051757813Q17.189481343746188,242.93003051757813,16.368281343746183,241.72203051757813Q15.546981343746186,240.51303051757813,14.785531343746186,239.26603051757812Q14.024091343746186,238.01903051757813,13.324261343746185,236.73603051757811Q12.624421343746185,235.45303051757813,11.987861343746186,234.13803051757813Q11.351301343746186,232.82303051757813,10.779521343746186,231.47803051757813Q10.207741343746186,230.13303051757813,9.702101343746186,228.76203051757813Q9.196461343746186,227.39103051757812,8.758151343746185,225.99703051757814Q8.319851343746185,224.60403051757814,7.949921343746185,223.19003051757812Q7.579981343746185,221.77603051757814,7.279311343746185,220.34603051757813Q6.978627343746186,218.91603051757812,6.747913343746186,217.47303051757814Q6.517199343746185,216.03103051757813,6.356997343746185,214.57803051757813Q6.196795343746185,213.12603051757813,6.107485343746185,211.66703051757813Q6.0181756437461855,210.20903051757813,5.999969483746185,208.74803051757812Q6.026660243746186,205.72503051757812,6.206194343746185,202.70703051757812Q6.385728343746186,199.69003051757812,6.717679343746186,196.68403051757812Q7.049631343746185,193.67803051757812,7.533201343746185,190.69203051757813Q8.016781343746185,187.7050305175781,8.650821343746186,184.74523051757814Q9.284871343746186,181.78503051757812,10.067881343746185,178.8583305175781Q10.850891343746184,175.93163051757813,11.780991343746186,173.04523051757812Q12.711101343746186,170.1588305175781,13.786081343746186,167.3196305175781Q14.861061343746185,164.48053051757813,16.078381343746187,161.69533051757813Q17.295681343746185,158.91023051757813,18.652381343746185,156.18573051757812Q20.009081343746185,153.46123051757814,21.501981343746188,150.80383051757812Q22.994881343746187,148.14643051757812,24.620381343746185,145.56253051757812Q26.245981343746184,142.97863051757813,28.000181343746185,140.47433051757812Q29.754481343746185,137.97003051757812,31.633381343746187,135.55133051757812Q33.512181343746185,133.13263051757812,35.51118134374619,130.80523051757814Q37.51008134374619,128.47793051757813,39.62438134374619,126.24743051757812Q41.73868134374619,124.01703051757812,43.963181343746186,121.88873051757813Q46.18778134374619,119.76053051757813,48.517281343746184,117.73953051757812Q50.84688134374618,115.71863051757812,53.275881343746185,113.80973051757812Q55.70488134374619,111.90093051757813,58.227481343746184,110.10873051757812Q60.750181343746185,108.31653051757813,63.36048134374619,106.64523051757813Q65.97078134374618,104.97393051757813,68.66248134374618,103.42763051757812Q71.35418134374619,101.88123051757813,74.12088134374619,100.46343051757813Q76.88758134374619,99.04563051757813,79.72268134374619,97.75983051757812Q82.55778134374619,96.47403051757813,85.45458134374618,95.32327051757812Q88.35138134374618,94.17249051757813,91.30288134374618,93.15948051757812Q94.25448134374618,92.14647051757812,97.25368134374618,91.27366051757812Q100.25298134374619,90.40084051757813,103.29278134374619,89.67029051757812Q106.33298134374618,88.93974051757813,109.40598134374619,88.35320051757813Q112.47898134374618,87.76666051757813,115.57798134374619,87.32553051757813Q118.67698134374619,86.88440151757813,121.79498134374619,86.58972851757812Q124.91298134374618,86.29505551757812,128.0419813437462,86.14754251757813Q131.17098134374618,86.00003051757812,134.30298134374618,86.00003051757812Q137.4359813437462,86.00003051757812,140.56498134374618,86.14754251757813Q143.69398134374617,86.29505551757812,146.8119813437462,86.58972851757812Q149.9299813437462,86.88440151757813,153.02898134374618,87.32553051757813Q156.12798134374617,87.76666051757813,159.20098134374618,88.35320051757813Q162.2739813437462,88.93974051757813,165.31398134374618,89.67029051757812Q168.3539813437462,90.40084051757813,171.3529813437462,91.27366051757812Q174.3519813437462,92.14647051757812,177.3039813437462,93.15948051757812Q180.25498134374618,94.17249051757813,183.15198134374617,95.32327051757812Q186.0489813437462,96.47403051757813,188.88398134374617,97.75983051757812Q191.71898134374618,99.04563051757813,194.48598134374618,100.46343051757813Q197.25298134374617,101.88123051757813,199.94398134374617,103.42763051757812Q202.63598134374618,104.97393051757813,205.2459813437462,106.64523051757813Q207.85698134374618,108.31653051757813,210.37898134374618,110.10873051757812Q212.90198134374617,111.90093051757813,215.33098134374617,113.80973051757812Q217.75998134374618,115.71863051757812,220.08898134374618,117.73953051757812Q222.4189813437462,119.76053051757813,224.6439813437462,121.88873051757813Q226.86798134374618,124.01703051757812,228.98198134374618,126.24743051757812Q231.0969813437462,128.47793051757813,233.0959813437462,130.80523051757814Q235.09498134374618,133.13263051757812,236.9729813437462,135.55133051757812Q238.8519813437462,137.97003051757812,240.60698134374618,140.47433051757812Q242.36098134374618,142.97863051757813,243.98598134374618,145.56253051757812Q245.61198134374618,148.14643051757812,247.10498134374618,150.80383051757812Q248.5979813437462,153.46123051757814,249.9539813437462,156.18573051757812Q251.3109813437462,158.91023051757813,252.52798134374618,161.69533051757813Q253.7459813437462,164.48053051757813,254.82098134374618,167.3196305175781Q255.89598134374617,170.1588305175781,256.8259813437462,173.04523051757812Q257.75598134374616,175.93163051757813,258.5389813437462,178.8583305175781Q259.3219813437462,181.78503051757812,259.9559813437462,184.74523051757814Q260.5899813437462,187.7050305175781,261.0739813437462,190.69203051757813Q261.5569813437462,193.67803051757812,261.8889813437462,196.68403051757812Q262.2209813437462,199.69003051757812,262.4009813437462,202.70703051757812Q262.57998134374617,205.72503051757812,262.6069813437462,208.74803051757812Z" fill-rule="evenodd" fill="#FF8686" fill-opacity="1"/></g></g><g><g><g><ellipse cx="192.9888572692871" cy="166.50003051757812" rx="36.31455612182617" ry="36.5" fill="#FFFFFF" fill-opacity="1"/><ellipse cx="192.9888572692871" cy="166.50003051757812" rx="36.31455612182617" ry="36.5" fill="url(#master_svg5_10_7248)" fill-opacity="1"/></g><g><ellipse cx="192.9888515472412" cy="166.50003623962402" rx="21.788732528686523" ry="21.899999618530273" fill="#1885F9" fill-opacity="1"/></g><g><ellipse cx="185.2987232208252" cy="157.05295991897583" rx="7.262910842895508" ry="7.299999713897705" fill="#FFFFFF" fill-opacity="1"/></g></g><g><g><ellipse cx="83.61796188354492" cy="166.50003051757812" rx="36.31455612182617" ry="36.5" fill="#FFFFFF" fill-opacity="1"/><ellipse cx="83.61796188354492" cy="166.50003051757812" rx="36.31455612182617" ry="36.5" fill="url(#master_svg6_10_7248)" fill-opacity="1"/></g><g><ellipse cx="83.61795616149902" cy="166.50003623962402" rx="21.788732528686523" ry="21.899999618530273" fill="#1885F9" fill-opacity="1"/></g><g><ellipse cx="75.92782783508301" cy="157.05295991897583" rx="7.262910842895508" ry="7.299999713897705" fill="#FFFFFF" fill-opacity="1"/></g></g></g></g></svg>