<svg xmlns="http://www.w3.org/2000/svg" xmlns:xlink="http://www.w3.org/1999/xlink" fill="none" version="1.1" width="300.0000305175781" height="300" viewBox="0 0 300.0000305175781 300"><defs><clipPath id="master_svg0_10_7261"><rect x="22.000030517578125" y="22" width="256" height="256" rx="60"/></clipPath><linearGradient x1="0.5" y1="0" x2="0.5" y2="1" id="master_svg1_10_7230"><stop offset="0%" stop-color="#FFD154" stop-opacity="1"/><stop offset="99.28571581840515%" stop-color="#D8D8D8" stop-opacity="1"/></linearGradient><linearGradient x1="0.5" y1="0" x2="0.5" y2="1" id="master_svg2_10_7240"><stop offset="0%" stop-color="#5EF313" stop-opacity="1"/><stop offset="100%" stop-color="#53AA28" stop-opacity="1"/></linearGradient><linearGradient x1="0.5" y1="0" x2="0.5" y2="1" id="master_svg3_10_7240"><stop offset="0%" stop-color="#5EF313" stop-opacity="1"/><stop offset="100%" stop-color="#53AA28" stop-opacity="1"/></linearGradient><linearGradient x1="0.5" y1="0" x2="0.5" y2="1" id="master_svg4_10_7240"><stop offset="0%" stop-color="#5EF313" stop-opacity="1"/><stop offset="100%" stop-color="#53AA28" stop-opacity="1"/></linearGradient><linearGradient x1="0.5" y1="0" x2="0.5" y2="1" id="master_svg5_10_7240"><stop offset="0%" stop-color="#5EF313" stop-opacity="1"/><stop offset="100%" stop-color="#53AA28" stop-opacity="1"/></linearGradient><linearGradient x1="0.1802798956632614" y1="0.1100374087691307" x2="0.7833956714229624" y2="0.9605060775267545" id="master_svg6_10_7248"><stop offset="0%" stop-color="#FFFFFF" stop-opacity="1"/><stop offset="100%" stop-color="#D4D3D3" stop-opacity="0"/></linearGradient><linearGradient x1="0.1802798956632614" y1="0.1100374087691307" x2="0.7833956714229624" y2="0.9605060775267545" id="master_svg7_10_7248"><stop offset="0%" stop-color="#FFFFFF" stop-opacity="1"/><stop offset="100%" stop-color="#D4D3D3" stop-opacity="0"/></linearGradient><clipPath id="master_svg8_10_7275"><rect x="168" y="56" width="110" height="110" rx="0"/></clipPath></defs><g><g clip-path="url(#master_svg0_10_7261)"><g><g><rect x="22.000030517578125" y="22" width="256" height="256" rx="60" fill="#FFFFFF" fill-opacity="1"/></g></g><g><g transform="matrix(0.980646014213562,-0.19578909873962402,0.17365023493766785,0.9848073720932007,-16.33023285093452,-4.890712899238224)"><path d="M46.32796948242188,90.47440146753398Q45.81306948242188,92.58788245483399,45.09736948242187,94.63468245483398Q44.38166948242187,96.68149245483399,43.47276948242188,98.64027245483399Q42.563769482421876,100.59902245483399,41.47106948242188,102.44942245483398Q40.378369482421874,104.29972245483398,39.11326948242187,106.02232245483398Q40.062469482421875,106.75982245483398,40.99026948242188,107.52412245483399Q41.91806948242187,108.28842245483398,42.82386948242187,109.07892245483399Q43.72956948242188,109.86952245483398,44.61246948242187,110.68562245483399Q45.49546948242188,111.50182245483398,46.354869482421876,112.34282245483399Q47.21426948242187,113.18392245483398,48.04946948242187,114.04922245483398Q48.88466948242187,114.91462245483399,49.69496948242187,115.80342245483399Q50.50516948242188,116.69232245483398,51.28986948242188,117.60402245483398Q52.07456948242188,118.51572245483399,52.83316948242188,119.44942245483398Q53.59166948242188,120.38322245483398,54.32336948242188,121.33832245483399Q55.05506948242187,122.29342245483399,55.75926948242187,123.26902245483399Q56.463569482421875,124.24472245483398,57.13986948242187,125.240122454834Q57.81616948242187,126.23552245483398,58.463969482421874,127.24982245483397Q59.111669482421874,128.264222454834,59.73046948242188,129.296622454834Q60.34916948242187,130.329122454834,60.93826948242187,131.378822454834Q61.527369482421875,132.428622454834,62.086469482421876,133.49482245483398Q62.64556948242188,134.56092245483399,63.174169482421874,135.64272245483397Q63.70276948242187,136.72442245483398,64.20046948242188,137.82092245483398Q64.69816948242187,138.917322454834,65.16446948242188,140.02752245483398Q65.63086948242187,141.13772245483398,66.06546948242188,142.260822454834Q66.50016948242188,143.384022454834,66.90266948242187,144.519122454834Q67.30526948242188,145.65412245483398,67.67546948242187,146.80032245483397Q68.04596948242188,147.946422454834,68.38296948242187,149.10272245483398Q68.72096948242188,150.259022454834,69.02496948242188,151.42452245483398Q69.32996948242187,152.58992245483398,69.60096948242187,153.76362245483398Q69.87196948242187,154.93742245483398,70.10996948242187,156.118322454834Q70.34796948242187,157.299322454834,70.55196948242188,158.48672245483397Q70.75696948242188,159.674022454834,70.92696948242188,160.866722454834Q71.09796948242187,162.059322454834,71.23396948242187,163.25642245483397Q71.37096948242187,164.453522454834,71.47296948242187,165.65402245483398Q71.57596948242187,166.85452245483398,71.64396948242188,168.05742245483398Q71.71296948242187,169.26042245483399,71.74696948242187,170.46482245483398Q71.78096948242188,171.66922245483397,71.78096948242188,172.87412245483398Q71.78096948242188,174.33362245483397,71.73096948242187,175.792322454834Q71.68096948242187,177.251022454834,71.57996948242187,178.70712245483398Q71.47996948242188,180.163222454834,71.32996948242187,181.615022454834Q71.17896948242188,183.06672245483398,70.97896948242187,184.512422454834Q70.77896948242187,185.95802245483398,70.52896948242187,187.39592245483396Q70.27996948242188,188.83382245483398,69.97996948242188,190.26212245483399Q69.68096948242187,191.690422454834,69.33296948242187,193.10742245483397Q68.98496948242187,194.524422454834,68.58896948242187,195.92942245483397Q68.19196948242187,197.33342245483396,67.74776948242187,198.72342245483398Q67.30326948242187,200.112422454834,66.81116948242187,201.48642245483398Q66.31906948242188,202.85942245483398,65.78006948242188,204.21542245483397Q65.24106948242188,205.570422454834,64.65566948242187,206.906422454834Q64.07036948242188,208.24242245483399,63.43946948242187,209.55742245483398Q62.80856948242187,210.87242245483398,62.13286948242188,212.165422454834Q61.45706948242187,213.457422454834,60.73726948242188,214.725422454834Q60.01756948242188,215.993422454834,59.25456948242187,217.23642245483398Q58.49156948242188,218.47842245483398,57.68636948242188,219.69342245483398Q56.88116948242188,220.909422454834,56.03456948242187,222.095422454834Q55.18806948242188,223.28242245483398,54.30116948242187,224.43842245483398Q53.414369482421876,225.595422454834,52.48826948242187,226.720422454834Q51.56216948242188,227.845422454834,50.597969482421874,228.93842245483398Q49.63376948242187,230.030422454834,48.63256948242187,231.088422454834Q47.63126948242187,232.147422454834,46.59426948242188,233.17042245483398Q45.55726948242187,234.19342245483398,44.48576948242187,235.179422454834Q43.41416948242187,236.166422454834,42.30926948242187,237.11442245483397Q41.20446948242187,238.06342245483398,40.06766948242188,238.97342245483398Q38.93086948242187,239.88342245483398,37.76336948242188,240.75342245483398Q36.59596948242188,241.62342245483399,35.399369482421875,242.451422454834Q34.20266948242187,243.280422454834,32.97826948242188,244.06742245483397Q31.753769482421873,244.85442245483398,30.50306948242188,245.59842245483398Q29.252269482421873,246.34342245483398,27.976669482421876,247.04342245483397Q26.70106948242187,247.743422454834,25.402169482421876,248.399422454834Q27.05186948242188,247.99642245483398,28.684269482421875,247.52042245483398Q30.316569482421876,247.04542245483398,31.928669482421874,246.49742245483398Q33.54076948242188,245.94942245483398,35.129669482421875,245.33042245483398Q36.71856948242187,244.71042245483397,38.28156948242187,244.02142245483398Q39.844569482421875,243.332422454834,41.37876948242187,242.57342245483397Q42.913069482421875,241.815422454834,44.41596948242187,240.98942245483397Q45.91876948242188,240.16342245483398,47.38756948242188,239.27142245483398Q48.85636948242187,238.37942245483399,50.28856948242188,237.422422454834Q51.72066948242187,236.46642245483397,53.11366948242187,235.446422454834Q54.50656948242188,234.42642245483398,55.85796948242188,233.346422454834Q57.209269482421874,232.26542245483398,58.51656948242187,231.125422454834Q59.82386948242187,229.98542245483398,61.084769482421876,228.78842245483398Q62.34576948242187,227.59142245483397,63.558169482421874,226.339422454834Q64.77056948242188,225.08742245483398,65.93226948242187,223.78242245483398Q67.09396948242187,222.47742245483397,68.20296948242188,221.12142245483398Q69.31196948242187,219.766422454834,70.36596948242187,218.362422454834Q71.41996948242188,216.95842245483396,72.41796948242188,215.50942245483398Q73.41596948242187,214.060422454834,74.35496948242188,212.567422454834Q75.29396948242187,211.07542245483398,76.17396948242188,209.54242245483397Q77.05296948242187,208.00942245483398,77.87096948242187,206.43842245483398Q78.68896948242187,204.86742245483399,79.44396948242188,203.261422454834Q80.19896948242187,201.65542245483397,80.88896948242187,200.017422454834Q81.57996948242187,198.37942245483399,82.20496948242187,196.71242245483398Q82.82996948242187,195.04542245483398,83.38796948242188,193.351422454834Q83.94596948242187,191.65842245483398,84.43696948242187,189.94102245483398Q84.92796948242187,188.224122454834,85.34996948242187,186.486822454834Q85.77196948242188,184.749522454834,86.12496948242188,182.99492245483398Q86.47796948242187,181.24032245483397,86.76196948242188,179.471622454834Q87.04496948242188,177.70292245483398,87.25796948242187,175.923122454834Q87.46996948242187,174.143322454834,87.61196948242187,172.355622454834Q87.75496948242187,170.56802245483397,87.82596948242187,168.775522454834Q87.89696948242188,166.983122454834,87.89696948242188,165.18912245483398Q87.89696948242188,163.76752245483397,87.85196948242188,162.346622454834Q87.80696948242188,160.925822454834,87.71796948242188,159.50732245483397Q87.62896948242188,158.088922454834,87.49496948242188,156.674322454834Q87.36096948242188,155.25982245483397,87.18296948242188,153.850722454834Q87.00496948242187,152.44172245483398,86.78296948242188,151.039722454834Q86.55996948242188,149.63782245483398,86.29396948242187,148.244422454834Q86.02796948242188,146.85102245483398,85.71796948242188,145.46792245483397Q85.40796948242188,144.08472245483398,85.05496948242188,142.71322245483398Q84.70196948242187,141.34172245483398,84.30596948242187,139.983422454834Q83.90996948242187,138.62512245483398,83.47196948242187,137.28162245483398Q83.03296948242188,135.93802245483397,82.55296948242187,134.610722454834Q82.07196948242188,133.28332245483398,81.54996948242187,131.973722454834Q81.02896948242187,130.66402245483397,80.46596948242187,129.373522454834Q79.90296948242188,128.08292245483398,79.29996948242187,126.81302245483398Q78.69696948242188,125.54302245483399,78.05496948242188,124.29502245483398Q77.41196948242188,123.04712245483398,76.73096948242187,121.82242245483398Q76.04996948242187,120.59782245483399,75.32996948242187,119.39792245483399Q74.61096948242188,118.19792245483399,73.85396948242187,117.02412245483399Q73.09696948242187,115.85022245483398,72.30396948242188,114.70372245483398Q71.51096948242187,113.55712245483399,70.68196948242188,112.43922245483398Q69.85296948242187,111.32132245483399,68.98996948242187,110.23332245483398Q68.12696948242187,109.14522245483398,67.22936948242187,108.08822245483398Q66.33226948242188,107.03122245483398,65.40246948242188,106.00642245483398Q64.47256948242187,104.98172245483399,63.511069482421874,103.99032245483399Q62.54956948242187,102.99892245483399,61.55746948242188,102.04192245483398Q60.56536948242187,101.08502245483399,59.543669482421876,100.16362245483398Q58.52206948242187,99.24222245483398,57.47206948242187,98.35736245483399Q56.422069482421875,97.47251245483399,55.34486948242187,96.62519245483398Q54.26766948242188,95.77786245483398,53.164369482421876,94.96901245483399Q52.061169482421874,94.16016245483398,50.93306948242187,93.39067245483399Q49.80506948242187,92.62118245483398,48.65346948242187,91.89191245483399Q47.50186948242188,91.16264345483398,46.32796948242188,90.47440146753398ZM-31.666991517578126,90.57672745483399Q-31.679580517578124,90.52558245483398,-31.692050517578124,90.47440443813399Q-31.846256517578126,90.56481625483399,-32.000086856678124,90.65594245483399Q-31.833619517578125,90.61599445483398,-31.666991517578126,90.57672745483399Z" fill-rule="evenodd" fill="url(#master_svg1_10_7230)" fill-opacity="1"/></g></g><g><g transform="matrix(-0.3920607268810272,-0.9199393391609192,0.8780079483985901,-0.4786459803581238,-197.42576264126342,351.30837880693207)"><g transform="matrix(0.8114373087882996,0.5844394564628601,-0.5844395160675049,0.8114373087882996,147.6449500434146,6.978195007416389)"><path d="M84.20220922851563,327.0428951599121Q81.48780922851563,324.8879951599121,79.06800922851562,322.4262951599121Q78.06190922851562,321.4027951599121,77.11070922851562,320.32999515991213Q76.15960922851562,319.25729515991213,75.26560922851563,318.1377951599121Q74.37170922851563,317.0182951599121,73.53690922851563,315.8544951599121Q72.70212922851563,314.6907951599121,71.92845922851562,313.4855951599121Q71.15478922851563,312.2802951599121,70.44397922851563,311.0361951599121Q69.73316922851562,309.7920951599121,69.08684922851563,308.5119951599121Q68.44051922851563,307.2319951599121,67.86014922851562,305.9188951599121Q67.27978922851563,304.6057951599121,66.76669922851562,303.2625951599121Q66.25360922851563,301.91939515991214,65.80896922851562,300.5491951599121Q65.36432922851563,299.1789951599121,64.98914922851563,297.7849951599121Q64.61396922851563,296.39089515991213,64.30910922851562,294.9760951599121Q64.00424522851563,293.5613951599121,63.770395228515625,292.12909515991214Q63.536546228515626,290.6968951599121,63.37424122851562,289.2503951599121Q63.21193722851562,287.8039951599121,63.12154822851563,286.3465951599121Q63.031158528515626,284.8891951599121,63.012890088515626,283.4242951599121Q62.994621628515624,281.95929515991213,63.048515828515626,280.49009515991213Q63.07950592851562,279.6451951599121,63.13433322851562,278.7998951599121Q63.18916122851562,277.9544951599121,63.26778422851562,277.10919515991213Q63.34640822851563,276.2639951599121,63.44876922851562,275.4194951599121Q63.55112922851563,274.5748951599121,63.677149228515624,273.7317951599121Q63.80316922851563,272.8885951599121,63.95275422851562,272.0474951599121Q64.10233922851563,271.2063951599121,64.27537922851562,270.3678951599121Q64.44840922851563,269.5293951599121,64.64476922851563,268.6941951599121Q64.84112922851563,267.8588951599121,65.06065922851562,267.0275951599121Q65.28018922851562,266.1962951599121,65.52272922851563,265.36959515991214Q65.76526922851562,264.5427951599121,66.03062922851562,263.7211951599121Q66.29599922851563,262.8995951599121,66.58398922851562,262.0836951599121Q66.87197922851563,261.2678951599121,67.18236922851563,260.45839515991213Q67.49276922851563,259.6489951599121,67.82533922851563,258.84649515991214Q68.15790922851562,258.0440951599121,68.51240922851562,257.2492951599121Q68.86689922851562,256.4543951599121,69.24304922851563,255.66779515991212Q69.61919922851563,254.88119515991212,70.01671922851563,254.1032951599121Q70.41423922851563,253.32549515991212,70.83283922851562,252.5569951599121Q71.25142922851563,251.78859515991212,71.69078922851563,251.0300951599121Q72.13013922851563,250.27159515991212,72.58991922851563,249.5236951599121Q73.04970922851562,248.77569515991212,73.52950922851562,248.0388951599121Q74.00940922851562,247.3020951599121,74.50900922851562,246.5768951599121Q75.00850922851562,245.8516951599121,75.52750922851563,245.13869515991212Q76.04640922851563,244.4256951599121,76.58420922851562,243.7254951599121Q77.12210922851563,243.0251951599121,77.67850922851562,242.33819515991212Q78.23490922851562,241.6512651599121,78.80950922851562,240.97807515991212Q79.38400922851562,240.30488515991212,79.97620922851563,239.6459851599121Q80.56840922851562,238.98709515991212,81.17790922851563,238.3429851599121Q81.78740922851563,237.6988851599121,82.41360922851563,237.0700551599121Q83.03990922851563,236.4412251599121,83.68250922851563,235.8281451599121Q84.32500922851563,235.21506515991211,84.98340922851563,234.61819515991212Q85.64180922851563,234.0213351599121,86.31560922851563,233.4411251599121Q86.98930922851562,232.86092415991212,87.67780922851563,232.29781941391212Q90.39230922851563,234.45273515991212,92.81210922851562,236.91440515991212Q93.81820922851563,237.93795515991212,94.76930922851562,239.0107051599121Q95.72050922851562,240.08345515991212,96.61440922851563,241.2029651599121Q97.50840922851563,242.3224951599121,98.34320922851563,243.4861951599121Q99.17790922851563,244.64989515991212,99.95160922851562,245.8551951599121Q100.72530922851563,247.0604951599121,101.43610922851562,248.3045951599121Q102.14690922851563,249.5485951599121,102.79320922851562,250.82869515991212Q103.43960922851562,252.10879515991212,104.01990922851562,253.4218951599121Q104.60030922851563,254.7349951599121,105.11340922851562,256.0781951599121Q105.62650922851563,257.4213951599121,106.07110922851562,258.79149515991213Q106.51570922851562,260.1616951599121,106.89090922851562,261.5557951599121Q107.26610922851563,262.9498951599121,107.57100922851563,264.3645951599121Q107.87580922851564,265.7793951599121,108.10970922851563,267.2115951599121Q108.34350922851561,268.6438951599121,108.50580922851563,270.0902951599121Q108.66810922851562,271.5367951599121,108.75850922851563,272.9941951599121Q108.84890922851562,274.4514951599121,108.86720922851563,275.91649515991213Q108.88550922851562,277.3814951599121,108.83160922851562,278.8506951599121Q108.80060922851563,279.6954951599121,108.74570922851562,280.5408951599121Q108.69090922851562,281.3861951599121,108.61230922851563,282.23149515991213Q108.53370922851562,283.0767951599121,108.43130922851563,283.9212951599121Q108.32890922851563,284.7657951599121,108.20290922851562,285.6089951599121Q108.07690922851563,286.4520951599121,107.92730922851563,287.29329515991213Q107.77770922851562,288.1343951599121,107.60470922851562,288.9728951599121Q107.43170922851561,289.8113951599121,107.23530922851563,290.6465951599121Q107.03900922851562,291.4817951599121,106.81940922851562,292.3130951599121Q106.59990922851563,293.1443951599121,106.35730922851562,293.9711951599121Q106.11480922851563,294.7979951599121,105.84940922851563,295.61959515991214Q105.58410922851562,296.4411951599121,105.29610922851563,297.2569951599121Q105.00810922851562,298.0728951599121,104.69770922851563,298.88229515991213Q104.38730922851562,299.6917951599121,104.05470922851563,300.4941951599121Q103.72220922851562,301.29669515991213,103.36770922851562,302.09149515991214Q103.01320922851562,302.8862951599121,102.63700922851562,303.6729951599121Q102.26090922851563,304.4595951599121,101.86340922851562,305.2373951599121Q101.46580922851562,306.0152951599121,101.04720922851563,306.7836951599121Q100.62860922851561,307.55209515991214,100.18930922851563,308.3105951599121Q99.74990922851563,309.0690951599121,99.29020922851562,309.8170951599121Q98.83040922851563,310.5649951599121,98.35050922851562,311.3018951599121Q97.87070922851562,312.0386951599121,97.37110922851562,312.7638951599121Q96.87150922851563,313.4890951599121,96.35260922851563,314.2020951599121Q95.83370922851563,314.9149951599121,95.29580922851562,315.6152951599121Q94.75800922851562,316.3154951599121,94.20150922851562,317.0024951599121Q93.64510922851562,317.6894951599121,93.07060922851562,318.3626951599121Q92.49610922851562,319.0358951599121,91.90390922851563,319.69479515991213Q91.31160922851562,320.3535951599121,90.70220922851563,320.99779515991213Q90.09270922851562,321.6418951599121,89.46640922851563,322.2706951599121Q88.84020922851562,322.89949515991214,88.19760922851563,323.5125951599121Q87.55500922851563,324.1256951599121,86.89660922851563,324.7224951599121Q86.23820922851563,325.3193951599121,85.56450922851562,325.8995951599121Q84.89080922851562,326.4797951599121,84.20220922851563,327.0428951599121Z" fill-rule="evenodd" fill="url(#master_svg2_10_7240)" fill-opacity="1"/></g></g><g transform="matrix(-0.08475396782159805,-0.9964019656181335,0.9940617680549622,-0.10827454179525375,-177.58821837396496,226.0138895958819)"><g transform="matrix(0.8114373087882996,0.5844394564628601,-0.5844395160675049,0.8114373087882996,124.22962469736439,-5.433892330099866)"><path d="M90.92303145141602,283.786211649704Q88.01543145141602,281.53361164970397,85.46463145141601,278.918311649704Q84.49803145141601,277.927311649704,83.58683145141602,276.888111649704Q82.67563145141601,275.848811649704,81.82173145141601,274.763611649704Q80.96783145141602,273.678511649704,80.17320145141602,272.549811649704Q79.37856145141602,271.42111164970396,78.64493145141601,270.251411649704Q77.91130145141602,269.08171164970395,77.24032145141601,267.87351164970397Q76.56933145141602,266.66541164970397,75.96248145141601,265.421511649704Q75.35563145141602,264.17771164970395,74.81426145141602,262.90091164970397Q74.27289145141602,261.62401164970396,73.79821145141601,260.317111649704Q73.32352145141601,259.01011164970396,72.91658145141602,257.676011649704Q72.50964145141602,256.34181164970397,72.17134145141601,254.98341164970398Q71.83304145141602,253.624911649704,71.56414145141602,252.24531164970398Q71.29524245141602,250.86561164970396,71.09633745141602,249.46781164970398Q70.89743145141601,248.06991164970398,70.76896245141602,246.65701164970397Q70.64049445141602,245.24421164970397,70.58274775141602,243.819311649704Q70.52500155141601,242.394511649704,70.53810612141602,240.96091164970397Q70.55121075141602,239.527411649704,70.63513705141601,238.08821164970396Q70.68400945141602,237.25021164970397,70.75685545141602,236.41111164970397Q70.82970145141601,235.572011649704,70.92646645141602,234.73261164970398Q71.02323145141601,233.893111649704,71.14384245141602,233.053811649704Q71.26445445141601,232.21461164970398,71.40882145141602,231.37621164970398Q71.55319145141601,230.53791164970397,71.72120145141602,229.701011649704Q71.88921145141602,228.86411164970397,72.08075145141602,228.02941164970397Q72.27228145141602,227.19471164970398,72.48719145141601,226.36271164970398Q72.70210145141601,225.530711649704,72.94022145141602,224.70211164970397Q73.17834145141602,223.87351164970397,73.43949145141602,223.048911649704Q73.70065145141602,222.224411649704,73.98464145141601,221.40441164970397Q74.26863145141601,220.58451164970398,74.57525145141602,219.76981164970397Q74.88186145141601,218.95511164970398,75.21087145141601,218.146311649704Q75.53988145141602,217.337411649704,75.89103145141601,216.535111649704Q76.24218145141602,215.732711649704,76.61520145141601,214.937511649704Q76.98823145141601,214.142211649704,77.38286145141602,213.35461164970397Q77.77749145141601,212.56701164970397,78.19341145141601,211.78771164970397Q78.60934145141601,211.008411649704,79.04625145141601,210.237911649704Q79.48316145141601,209.46751164970397,79.94073145141601,208.70651164970397Q80.39830145141602,207.94541164970397,80.87623145141602,207.19451164970397Q81.35403145141602,206.44351164970396,81.85193145141602,205.70311164970397Q82.34973145141602,204.96261164970397,82.86713145141601,204.23341164970398Q83.38453145141601,203.504111649704,83.92113145141602,202.78651164970398Q84.45773145141601,202.06901164970398,85.01313145141602,201.36361164970398Q85.56853145141602,200.658311649704,86.14223145141602,199.965711649704Q86.71593145141601,199.273111649704,87.30763145141601,198.59381164970398Q87.89933145141602,197.91452164970397,88.50843145141602,197.249021649704Q89.11763145141602,196.58353164970399,89.74383145141601,195.93233164970397Q90.36993145141602,195.28113164970398,91.01273145141602,194.64473164970397Q91.655431451416,194.008321649704,92.31423145141602,193.387191649704Q92.97303145141602,192.76606164970397,93.64743145141601,192.16066164970397Q94.32173145141601,191.55527164970397,95.01123145141602,190.966071649704Q95.70063145141602,190.37686864970397,96.40463145141601,189.80430977570398Q99.31233145141601,192.056871649704,101.86303145141602,194.67215164970398Q102.82963145141602,195.663151649704,103.74083145141601,196.70239164970397Q104.65203145141601,197.74163164970398,105.50593145141602,198.82680164970398Q106.35983145141601,199.91201164970397,107.154531451416,201.04071164970398Q107.94913145141601,202.169411649704,108.68273145141602,203.33911164970397Q109.41643145141602,204.50881164970397,110.08733145141602,205.71691164970397Q110.75833145141601,206.92511164970398,111.36523145141601,208.16891164970397Q111.97203145141602,209.41281164970397,112.51343145141601,210.68961164970398Q113.05483145141602,211.96641164970399,113.529531451416,213.27341164970397Q114.00413145141601,214.580311649704,114.41113145141603,215.91451164970397Q114.81803145141602,217.24871164970398,115.15633145141601,218.607111649704Q115.49463145141601,219.96551164970398,115.76353145141601,221.34521164970397Q116.03243145141602,222.72481164970398,116.23133145141603,224.12271164970397Q116.430231451416,225.52051164970396,116.55873145141601,226.93341164970397Q116.68723145141601,228.34631164970398,116.74493145141602,229.77111164970398Q116.80273145141601,231.195911649704,116.78963145141601,232.62951164970397Q116.77653145141602,234.06311164970398,116.69253145141602,235.50221164970398Q116.64363145141601,236.34031164970398,116.57083145141601,237.17941164970398Q116.49803145141601,238.01841164970398,116.40123145141601,238.85791164970396Q116.30443145141601,239.69741164970398,116.18383145141601,240.53661164970399Q116.06323145141602,241.37581164970396,115.91883145141603,242.21421164970397Q115.77453145141601,243.05261164970398,115.60653145141602,243.889511649704Q115.43843145141602,244.72631164970397,115.24693145141602,245.56111164970397Q115.05543145141601,246.39581164970397,114.84053145141601,247.227811649704Q114.62563145141601,248.059811649704,114.387431451416,248.88841164970398Q114.14933145141602,249.71691164970397,113.88823145141602,250.54151164970398Q113.62703145141602,251.36611164970398,113.34303145141601,252.18611164970397Q113.05903145141602,253.00601164970396,112.75243145141602,253.82071164970398Q112.44583145141601,254.635411649704,112.11683145141602,255.44421164970396Q111.78783145141603,256.253011649704,111.43663145141602,257.05541164970396Q111.08553145141602,257.85771164970396,110.71253145141601,258.653011649704Q110.33943145141602,259.448311649704,109.94483145141601,260.235911649704Q109.55023145141601,261.023411649704,109.13423145141601,261.802811649704Q108.71833145141602,262.58211164970396,108.28143145141601,263.35251164970396Q107.84453145141602,264.123011649704,107.38693145141602,264.884011649704Q106.92943145141601,265.645011649704,106.45153145141602,266.39601164970395Q105.97363145141603,267.147011649704,105.47583145141601,267.88741164970395Q104.97793145141603,268.627811649704,104.46053145141602,269.357111649704Q103.94313145141601,270.086311649704,103.40653145141601,270.803911649704Q102.86993145141602,271.521511649704,102.31453145141602,272.226911649704Q101.75923145141601,272.93221164970396,101.18543145141601,273.624811649704Q100.61173145141602,274.317411649704,100.02003145141602,274.99671164970397Q99.42833145141601,275.676011649704,98.81923145141602,276.341511649704Q98.21003145141601,277.00691164970397,97.58393145141602,277.658111649704Q96.95773145141601,278.309311649704,96.31503145141602,278.945711649704Q95.67223145141601,279.58211164970396,95.01343145141601,280.203311649704Q94.35463145141601,280.82441164970396,93.68033145141601,281.429811649704Q93.00593145141602,282.03521164970397,92.31653145141601,282.624411649704Q91.62703145141602,283.213611649704,90.92303145141602,283.786211649704Z" fill-rule="evenodd" fill="url(#master_svg3_10_7240)" fill-opacity="1"/></g></g><g transform="matrix(0.8456444144248962,0.5337467193603516,-0.4424939751625061,0.8967714905738831,58.246733921616055,-70.19233754272193)"><g transform="matrix(0.8114373087882996,0.5844394564628601,-0.5844395160675049,0.8114373087882996,85.87621542072517,-102.68852950196356)"><path d="M229.54797459716798,175.3847810552597Q230.62117459716796,174.3228810552597,231.63767459716797,173.20458105525972Q232.65407459716798,172.08618105525971,233.61127459716798,170.9141810552597Q234.56837459716797,169.7420810552597,235.46377459716797,168.5192810552597Q236.35917459716796,167.2964810552597,237.19067459716797,166.0259810552597Q238.02217459716798,164.7554810552597,238.78757459716797,163.4404810552597Q239.55307459716798,162.1253810552597,240.25057459716797,160.7690810552597Q240.94807459716796,159.4127810552597,241.57597459716797,158.0184810552597Q242.20387459716795,156.6242810552597,242.76057459716796,155.19568105525968Q243.31727459716797,153.7669810552597,243.80127459716797,152.3074810552597Q244.28537459716796,150.8479810552597,244.69567459716797,149.3611810552597Q245.10587459716797,147.8744810552597,245.44137459716796,146.3641810552597Q245.77677459716796,144.8538810552597,246.03657459716797,143.3238810552597Q246.29627459716795,141.7937810552597,246.47977459716796,140.2477810552597Q246.66317459716797,138.7017810552597,246.76987459716798,137.1435810552597Q246.87657459716797,135.58548105525972,246.90617459716796,134.0190810552597Q246.93587459716798,132.45278105525972,246.88837459716797,130.8820810552597Q246.86227459716798,130.0179810552597,246.81287459716796,129.1534810552597Q246.76337459716797,128.28908105525971,246.69067459716797,127.4248810552597Q246.61797459716797,126.5606810552597,246.52207459716797,125.69738105525971Q246.42617459716797,124.8340810552597,246.30707459716797,123.97228105525971Q246.18797459716797,123.1105810552597,246.04577459716796,122.2510810552597Q245.90367459716796,121.3915810552597,245.73857459716797,120.5348810552597Q245.57347459716797,119.6781810552597,245.38547459716796,118.8250810552597Q245.19757459716797,117.9718810552597,244.98697459716797,117.12288105525971Q244.77627459716797,116.27388105525971,244.54317459716796,115.4295810552597Q244.30997459716798,114.5853810552597,244.05447459716797,113.7465810552597Q243.79897459716796,112.9077810552597,243.52127459716797,112.07498105525971Q243.24357459716796,111.24228105525971,242.94397459716797,110.4161810552597Q242.64427459716796,109.5900810552597,242.32297459716796,108.77138105525971Q242.00157459716797,107.9525810552597,241.65877459716796,107.14178105525971Q241.31587459716798,106.33088105525971,240.95177459716797,105.5285810552597Q240.58777459716796,104.7262810552597,240.20267459716797,103.93318105525971Q239.81767459716798,103.13998105525971,239.41197459716795,102.35658105525971Q239.00627459716796,101.5730810552597,238.58027459716797,100.7999810552597Q238.15417459716798,100.02688105525971,237.70807459716798,99.2647810552597Q237.26207459716795,98.5025810552597,236.79627459716795,97.7518810552597Q236.33047459716798,97.0011810552597,235.84537459716796,96.26248105525971Q235.36017459716797,95.52388105525971,234.85607459716798,94.7977810552597Q234.35197459716795,94.0717810552597,233.82927459716797,93.3588810552597Q233.30657459716798,92.64598105525971,232.76567459716796,91.9467810552597Q232.22467459716796,91.24761105525971,231.66597459716797,90.5626310552597Q231.10727459716796,89.87766105525971,230.53117459716796,89.2074310552597Q229.95507459716796,88.53719105525971,229.36197459716797,87.8822010552597Q228.76897459716798,87.2272010552597,228.15937459716798,86.58795105525971Q227.54987459716796,85.9486910552597,226.92427459716797,85.3256510552597Q226.29867459716797,84.70261105525971,225.65757459716798,84.0962610552597Q225.01637459716795,83.48990105525971,224.36017459716797,82.9006910552597Q223.70387459716795,82.3114870552597,223.03307459716797,81.7398675312597Q221.17097459716797,83.2916810552597,219.44637459716796,84.9980310552597Q218.37317459716797,86.05993105525971,217.35667459716797,87.1782910552597Q216.34027459716796,88.2966510552597,215.38317459716797,89.46868105525971Q214.42597459716796,90.6407210552597,213.53057459716797,91.86348105525971Q212.63517459716797,93.0862810552597,211.80371459716798,94.3567810552597Q210.97224459716796,95.6272810552597,210.20678459716797,96.9423810552597Q209.44132459716798,98.2573810552597,208.74378459716797,99.61378105525971Q208.04624459716797,100.9700810552597,207.41835459716796,102.36428105525971Q206.79046459716795,103.75848105525971,206.23379459716796,105.1871810552597Q205.67712459716796,106.6157810552597,205.19305459716796,108.0753810552597Q204.70898459716796,109.5348810552597,204.29872459716796,111.0215810552597Q203.88846459716797,112.5083810552597,203.55303459716797,114.0186810552597Q203.21760459716796,115.5289810552597,202.95784559716796,117.05898105525971Q202.69808259716797,118.5890810552597,202.51463159716798,120.1350810552597Q202.33118059716796,121.68108105525971,202.22449859716798,123.2391810552597Q202.11781639716796,124.7973810552597,202.08816929716798,126.3636810552597Q202.05852219716797,127.9300810552597,202.10598369716797,129.50078105525972Q202.13209329716796,130.3647810552597,202.18152059716797,131.22928105525972Q202.23094859716798,132.0937810552597,202.30365659716796,132.95798105525972Q202.37636459716796,133.8221810552597,202.47229859716796,134.68548105525971Q202.56823259716796,135.5487810552597,202.68731959716797,136.4104810552597Q202.80640759716798,137.2721810552597,202.94855859716796,138.1317810552597Q203.09071459716796,138.99128105525972,203.25581459716796,139.8479810552597Q203.42092459716798,140.7045810552597,203.60886459716798,141.5577810552597Q203.79680459716798,142.4109810552597,204.00743459716796,143.25998105525971Q204.21806459716797,144.1089810552597,204.45122459716796,144.9531810552597Q204.68439459716797,145.7974810552597,204.93990459716798,146.6362810552597Q205.19542459716797,147.4750810552597,205.47310459716797,148.3077810552597Q205.75078459716798,149.1405810552597,206.05042459716796,149.9666810552597Q206.35005459716797,150.79268105525972,206.67142459716797,151.6114810552597Q206.99278459716797,152.4301810552597,207.33563459716797,153.2410810552597Q207.67848459716797,154.05188105525968,208.04255459716796,154.8541810552597Q208.40663459716797,155.6564810552597,208.79166459716797,156.4496810552597Q209.17669459716797,157.24288105525972,209.58238459716796,158.0262810552597Q209.98807459716798,158.80968105525972,210.41412459716798,159.58278105525972Q210.84017459716796,160.35588105525972,211.28625459716795,161.11808105525972Q211.73233459716798,161.8802810552597,212.19807459716796,162.63098105525972Q212.66387459716796,163.38168105525972,213.14907459716798,164.1202810552597Q213.63417459716797,164.8589810552597,214.13827459716796,165.5849810552597Q214.64237459716796,166.3110810552597,215.16507459716797,167.0239810552597Q215.68777459716796,167.7367810552597,216.22877459716796,168.4359810552597Q216.76967459716798,169.1351810552597,217.32837459716797,169.8201810552597Q217.88707459716798,170.5051810552597,218.46317459716798,171.17538105525972Q219.03937459716798,171.8455810552597,219.63237459716797,172.50058105525972Q220.22537459716796,173.1555810552597,220.83497459716796,173.7948810552597Q221.44447459716798,174.4340810552597,222.07007459716797,175.05718105525972Q222.69567459716797,175.6801810552597,223.33687459716796,176.28658105525972Q223.97797459716796,176.8928810552597,224.63417459716797,177.4820810552597Q225.29047459716796,178.0712810552597,225.96127459716797,178.64298105525972Q227.82337459716797,177.0911810552597,229.54797459716798,175.3847810552597Z" fill-rule="evenodd" fill="url(#master_svg4_10_7240)" fill-opacity="1"/></g></g><g><g transform="matrix(0.8114373087882996,0.5844394564628601,-0.5844395160675049,0.8114373087882996,68.45569800550817,-64.89372279976499)"><path d="M162.76507446289062,168.66652782783507Q163.82817446289062,167.62592782783508,164.8323744628906,166.5242278278351Q165.83647446289064,165.42262782783507,166.77917446289064,164.26282782783508Q167.7217744628906,163.1029278278351,168.60047446289062,161.88782782783508Q169.47917446289063,160.6727278278351,170.29167446289063,159.4055278278351Q171.10407446289062,158.1383278278351,171.84827446289063,156.82232782783507Q172.59237446289063,155.50622782783506,173.2663744628906,154.14472782783508Q173.9402744628906,152.78322782783508,174.54227446289062,151.3797278278351Q175.14417446289062,149.97632782783506,175.67267446289063,148.5344278278351Q176.20117446289063,147.0926278278351,176.65467446289063,145.6161278278351Q177.10837446289062,144.1397278278351,177.48587446289062,142.63232782783507Q177.86347446289062,141.12502782783508,178.16407446289062,139.59072782783508Q178.46457446289062,138.05642782783508,178.68737446289063,136.49912782783508Q178.9101744628906,134.94182782783508,179.05457446289063,133.36552782783508Q179.19907446289062,131.78912782783507,179.2647744628906,130.19782782783508Q179.33047446289063,128.60652782783507,179.31737446289063,127.00442782783509Q179.30417446289061,125.40222782783508,179.21217446289063,123.79332782783509Q179.16237446289063,122.92242782783508,179.08947446289062,122.05042782783508Q179.01657446289062,121.17842782783508,178.92067446289062,120.30612782783508Q178.82487446289062,119.43372782783509,178.70597446289062,118.56162782783508Q178.58717446289063,117.6895278278351,178.44547446289062,116.81832782783508Q178.30387446289063,115.94722782783509,178.13947446289063,115.07762782783507Q177.97507446289063,114.20802782783508,177.78797446289062,113.34072782783508Q177.60097446289063,112.47342782783508,177.39147446289064,111.60892782783509Q177.18197446289062,110.74452782783509,176.95017446289063,109.88362782783508Q176.7183744628906,109.02272782783508,176.46437446289062,108.16602782783508Q176.21047446289063,107.30932782783509,175.93457446289062,106.45742782783509Q175.65867446289062,105.60562782783508,175.36097446289062,104.75922782783508Q175.06337446289064,103.91282782783509,174.7441744628906,103.07262782783508Q174.42507446289062,102.23232782783508,174.08457446289063,101.39882782783508Q173.7441744628906,100.56532782783509,173.38267446289063,99.73922782783508Q173.02127446289063,98.91312782783508,172.63897446289062,98.09502782783508Q172.25677446289063,97.27692782783508,171.85417446289063,96.46742782783508Q171.45147446289062,95.65802782783508,171.02867446289062,94.85772782783508Q170.60577446289062,94.05752782783509,170.16317446289062,93.26712782783508Q169.72047446289062,92.47662782783509,169.25827446289063,91.69672782783508Q168.79617446289063,90.91672782783508,168.31487446289063,90.14772782783508Q167.83347446289062,89.37882782783508,167.33337446289062,88.62142782783508Q166.83327446289064,87.86412782783508,166.31477446289063,87.11892782783508Q165.79617446289063,86.37372782783508,165.25967446289062,85.64132782783508Q164.72307446289062,84.90882782783508,164.16897446289062,84.18972782783509Q163.61477446289064,83.47052782783508,163.04337446289063,82.76519782783508Q162.4719744628906,82.05986782783508,161.88387446289062,81.36889782783508Q161.29567446289062,80.67792782783508,160.69127446289062,80.00183782783509Q160.08677446289062,79.32574782783509,159.46637446289063,78.66505782783508Q158.8460744628906,78.00435782783508,158.21027446289062,77.35954782783509Q157.5745744628906,76.71473782783508,156.92387446289064,76.08630782783509Q156.27317446289064,75.45786782783509,155.6080744628906,74.84628782783508Q154.94297446289062,74.23470082783508,154.26397446289062,73.64042720859308Q152.75787446289064,74.90630782783508,151.34957446289062,76.28470782783508Q150.28647446289062,77.32529782783509,149.28227446289063,78.42693782783508Q148.27807446289063,79.52857782783508,147.33547446289063,80.68842782783508Q146.39277446289063,81.84828782783508,145.51417446289062,83.06337782783508Q144.63544446289063,84.27842782783509,143.82298446289062,85.54562782783509Q143.01052446289063,86.81282782783508,142.26637446289064,88.12892782783508Q141.52221446289062,89.44492782783509,140.84829446289064,90.80642782783508Q140.17436446289062,92.16802782783509,139.57239446289063,93.57142782783508Q138.97042446289063,94.97492782783507,138.44195446289064,96.41672782783508Q137.9134944628906,97.85862782783508,137.45989446289062,99.33502782783509Q137.00629446289062,100.81152782783508,136.62872446289063,102.31882782783508Q136.2511544628906,103.82612782783508,135.95058446289062,105.36042782783508Q135.65002246289063,106.89472782783508,135.42723146289063,108.45202782783508Q135.20444046289063,110.00932782783508,135.05999846289063,111.58572782783509Q134.91555646289063,113.16202782783509,134.84983426289062,114.75332782783508Q134.7841120628906,116.34462782783508,134.79727904289064,117.94682782783508Q134.8104459628906,119.54902782783509,134.90246846289062,121.15792782783508Q134.95228046289063,122.02882782783507,135.02515646289064,122.90082782783509Q135.09803246289061,123.77282782783507,135.19391646289063,124.64512782783508Q135.28980046289064,125.51752782783508,135.40862046289064,126.38962782783508Q135.52744046289064,127.26172782783507,135.66910746289062,128.1328278278351Q135.81077446289063,129.00402782783507,135.97517446289064,129.8736278278351Q136.13958446289064,130.74312782783508,136.32660446289063,131.61052782783509Q136.51362446289062,132.47782782783509,136.72312446289064,133.34222782783507Q136.93261446289063,134.2067278278351,137.16443446289063,135.06762782783508Q137.39624446289062,135.92852782783507,137.65019446289062,136.7852278278351Q137.90415446289063,137.64192782783508,138.18005446289064,138.49372782783507Q138.45596446289062,139.34562782783507,138.75360446289062,140.1920278278351Q139.05125446289063,141.03832782783508,139.37041446289064,141.8786278278351Q139.68958446289062,142.71882782783507,140.03002446289062,143.5523278278351Q140.37046446289062,144.3858278278351,140.73193446289062,145.2119278278351Q141.09339446289061,146.0380278278351,141.47560446289063,146.85612782783508Q141.85781446289062,147.6743278278351,142.26048446289062,148.48372782783508Q142.66315446289062,149.2932278278351,143.08597446289062,150.0934278278351Q143.50880446289062,150.89372782783508,143.9514644628906,151.68412782783508Q144.39413446289063,152.4745278278351,144.8562744628906,153.2545278278351Q145.31847446289063,154.03452782783506,145.79977446289064,154.8034278278351Q146.28107446289061,155.5724278278351,146.78127446289062,156.3297278278351Q147.28137446289062,157.0871278278351,147.7998744628906,157.8323278278351Q148.31837446289063,158.5774278278351,148.85497446289062,159.30992782783508Q149.3914744628906,160.0423278278351,149.94567446289062,160.7615278278351Q150.49987446289063,161.4807278278351,151.0712744628906,162.18602782783506Q151.64257446289062,162.89132782783508,152.23077446289062,163.5823278278351Q152.81887446289062,164.2732278278351,153.42337446289062,164.94932782783508Q154.02787446289062,165.6254278278351,154.64817446289064,166.2861278278351Q155.26857446289063,166.94682782783508,155.9042744628906,167.59162782783508Q156.54007446289063,168.2364278278351,157.19077446289063,168.8649278278351Q157.84137446289063,169.4933278278351,158.50647446289062,170.10492782783507Q159.17157446289062,170.71652782783508,159.85067446289062,171.31082782783508Q161.35677446289063,170.04492782783507,162.76507446289062,168.66652782783507Z" fill-rule="evenodd" fill="url(#master_svg5_10_7240)" fill-opacity="1"/></g></g></g><g><g><path d="M224.25829962921142,265.433Q224.20029962921143,266.867,224.07429962921145,268.296Q223.94729962921144,269.725,223.75229962921145,271.147Q223.55729962921143,272.568,223.29529962921143,273.979Q223.03229962921142,275.39,222.70329962921141,276.786Q222.37329962921143,278.182,221.97729962921142,279.562Q221.58129962921143,280.94100000000003,221.1192996292114,282.299Q220.65829962921143,283.658,220.13229962921142,284.993Q219.60629962921143,286.328,219.01729962921144,287.63599999999997Q218.42729962921143,288.945,217.77629962921142,290.223Q217.1252996292114,291.502,216.41429962921143,292.748Q215.70329962921141,293.994,214.93229962921143,295.20500000000004Q214.16229962921142,296.416,213.33529962921142,297.58799999999997Q212.50829962921142,298.76,211.62629962921142,299.892Q210.74329962921144,301.024,209.80829962921143,302.11199999999997Q208.87329962921143,303.2,207.88629962921144,304.24199999999996Q206.90029962921142,305.284,205.86529962921142,306.278Q204.83029962921142,307.272,203.74929962921144,308.21500000000003Q202.66829962921142,309.158,201.5422996292114,310.049Q200.4172996292114,310.93899999999996,199.25129962921142,311.775Q198.08429962921142,312.61,196.87929962921143,313.389Q195.67429962921142,314.168,194.43329962921143,314.889Q193.19329962921142,315.60900000000004,191.91929962921142,316.269Q190.64529962921142,316.93,189.34129962921142,317.528Q188.03729962921142,318.127,186.70629962921143,318.663Q185.37429962921144,319.198,184.01929962921142,319.66999999999996Q182.66429962921143,320.14099999999996,181.28829962921142,320.547Q179.91229962921142,320.953,178.51729962921144,321.293Q177.12329962921143,321.63300000000004,175.71529962921142,321.906Q174.30629962921142,322.178,172.88629962921144,322.384Q171.46629962921142,322.589,170.03729962921142,322.726Q168.60929962921142,322.863,167.17629962921143,322.93100000000004Q165.74329962921144,323,164.30829962921143,323L27.691999629211423,323Q26.257099629211424,323,24.823899629211425,322.93100000000004Q23.390599629211422,322.863,21.962299629211422,322.726Q20.53399962921143,322.589,19.113899629211424,322.384Q17.693699629211423,322.178,16.284999629211427,321.906Q14.876299629211424,321.63300000000004,13.482299629211425,321.293Q12.088199629211424,320.953,10.711999629211427,320.547Q9.335799629211422,320.14099999999996,7.980599629211426,319.66999999999996Q6.625299629211426,319.198,5.294199629211427,318.663Q3.9630996292114276,318.127,2.6589996292114293,317.528Q1.3549996292114272,316.93,0.08109962921142255,316.27Q-1.192800370788575,315.60900000000004,-2.433700370788575,314.889Q-3.674600370788575,314.168,-4.879700370788573,313.389Q-6.084700370788575,312.61,-7.251100370788574,311.775Q-8.417500370788574,310.93899999999996,-9.542700370788573,310.049Q-10.667800370788573,309.158,-11.749100370788575,308.21500000000003Q-12.830400370788574,307.272,-13.865400370788574,306.278Q-14.900400370788574,305.284,-15.886700370788574,304.24199999999996Q-16.872900370788575,303.2,-17.808300370788572,302.11199999999997Q-18.743600370788574,301.024,-19.625900370788575,299.892Q-20.508100370788576,298.76,-21.335300370788573,297.58799999999997Q-22.162400370788575,296.416,-22.932610370788574,295.20500000000004Q-23.702770370788574,293.994,-24.414180370788575,292.748Q-25.125600370788575,291.502,-25.776630370788574,290.223Q-26.427660370788573,288.945,-27.016830370788576,287.63599999999997Q-27.605990370788575,286.328,-28.131950370788573,284.993Q-28.657900370788575,283.658,-29.119430370788574,282.299Q-29.580970370788574,280.94100000000003,-29.977030370788576,279.562Q-30.373100370788574,278.182,-30.702780370788574,276.786Q-31.032470370788573,275.39,-31.295022370788573,273.979Q-31.557577370788575,272.568,-31.752400370788575,271.147Q-31.947224370788575,269.725,-32.073870370788576,268.296Q-32.200516870788576,266.867,-32.25869699220858,265.433Q-32.17289447078858,262.645,-31.938104370788576,259.865Q-31.703315370788573,257.084,-31.320084370788575,254.317Q-30.936850370788573,251.5496,-30.406070370788573,248.8023Q-29.875290370788573,246.055,-29.198190370788573,243.334Q-28.521090370788574,240.6129,-27.699250370788576,237.9244Q-26.877410370788574,235.23590000000002,-25.912740370788576,232.5863Q-24.948070370788574,229.9366,-23.842810370788577,227.332Q-22.737550370788576,224.7273,-21.494300370788572,222.1737Q-20.251000370788574,219.62,-18.872600370788575,217.1234Q-17.494200370788576,214.6268,-15.983800370788575,212.1929Q-14.473500370788575,209.75900000000001,-12.834700370788575,207.3936Q-11.196000370788575,205.0282,-9.432600370788574,202.73669999999998Q-7.669300370788573,200.4453,-5.785400370788576,198.2331Q-3.901600370788575,196.0208,-1.9016003707885751,193.893Q0.09839962921142842,191.7653,2.2097996292114246,189.7268Q4.321299629211424,187.6884,6.539299629211428,185.744Q8.757299629211424,183.7997,11.076799629211429,181.954Q13.396199629211424,180.1082,15.811699629211425,178.3654Q18.227099629211423,176.6226,20.732999629211427,174.9868Q23.238799629211428,173.3509,25.829199629211423,171.82580000000002Q28.41969962921143,170.3007,31.088699629211426,168.8899Q33.75769962921143,167.4792,36.498999629211426,166.186Q39.24029962921142,164.8928,42.04759962921142,163.7202Q44.85499962921142,162.54756,47.72169962921143,161.49828Q50.58849962921143,160.44899,53.507999629211426,159.52547Q56.42759962921143,158.60195,59.39309962921142,157.80634Q62.35869962921143,157.01072,65.36329962921143,156.34486Q68.36829962921142,155.67901,71.40429962921142,155.14445Q74.44129962921143,154.6099,77.50329962921143,154.20789Q80.56529962921142,153.805886,83.64529962921142,153.537362Q86.72429962921143,153.268837,89.81529962921142,153.134419Q92.90629962921143,153,96.00029962921141,153Q99.09429962921143,153,102.18429962921144,153.134419Q105.27529962921142,153.268837,108.35529962921143,153.537362Q111.43429962921144,153.805886,114.49629962921142,154.20789Q117.55829962921143,154.6099,120.59529962921144,155.14445Q123.63229962921142,155.67901,126.63629962921144,156.34486Q129.64129962921143,157.01072,132.60729962921144,157.80634Q135.57229962921141,158.60195,138.49229962921143,159.52547Q141.4112996292114,160.44899,144.27829962921143,161.49828Q147.14529962921142,162.54756,149.95229962921144,163.7202Q152.75929962921143,164.8928,155.50129962921142,166.186Q158.24229962921143,167.4792,160.9112996292114,168.8899Q163.58029962921142,170.3007,166.17029962921143,171.82580000000002Q168.76129962921144,173.3509,171.26729962921144,174.9868Q173.77329962921144,176.6226,176.18829962921143,178.3654Q178.60329962921142,180.1082,180.9232996292114,181.954Q183.24229962921143,183.7997,185.46029962921142,185.744Q187.67829962921144,187.6884,189.79029962921143,189.7268Q191.90129962921142,191.7653,193.90129962921142,193.893Q195.90129962921142,196.0208,197.78529962921144,198.2331Q199.66929962921142,200.4453,201.43229962921143,202.73669999999998Q203.19629962921144,205.0282,204.83429962921142,207.3936Q206.47329962921143,209.75900000000001,207.98429962921142,212.1929Q209.4942996292114,214.6268,210.87229962921143,217.1234Q212.25129962921142,219.62,213.4942996292114,222.1737Q214.73729962921144,224.7273,215.84329962921143,227.332Q216.94829962921142,229.9366,217.91229962921142,232.5863Q218.87729962921142,235.23590000000002,219.69929962921142,237.9244Q220.52129962921143,240.6129,221.19829962921142,243.334Q221.8752996292114,246.055,222.40629962921142,248.8023Q222.93729962921142,251.5496,223.32029962921143,254.317Q223.70329962921141,257.084,223.93829962921143,259.865Q224.17329962921144,262.645,224.25829962921142,265.433Z" fill-rule="evenodd" fill="#FF8686" fill-opacity="1"/></g></g><g><g><g><ellipse cx="154.68542098999023" cy="233.5" rx="36.31455612182617" ry="36.5" fill="#FFFFFF" fill-opacity="1"/><ellipse cx="154.68542098999023" cy="233.5" rx="36.31455612182617" ry="36.5" fill="url(#master_svg6_10_7248)" fill-opacity="1"/></g><g><ellipse cx="154.68541526794434" cy="233.5000057220459" rx="21.788732528686523" ry="21.899999618530273" fill="#1885F9" fill-opacity="1"/></g><g><ellipse cx="146.99528694152832" cy="224.0529294013977" rx="7.262910842895508" ry="7.299999713897705" fill="#FFFFFF" fill-opacity="1"/></g></g><g><g><ellipse cx="45.31452560424805" cy="233.5" rx="36.31455612182617" ry="36.5" fill="#FFFFFF" fill-opacity="1"/><ellipse cx="45.31452560424805" cy="233.5" rx="36.31455612182617" ry="36.5" fill="url(#master_svg7_10_7248)" fill-opacity="1"/></g><g><ellipse cx="45.31451988220215" cy="233.5000057220459" rx="21.788732528686523" ry="21.899999618530273" fill="#1885F9" fill-opacity="1"/></g><g><ellipse cx="37.62439155578613" cy="224.0529294013977" rx="7.262910842895508" ry="7.299999713897705" fill="#FFFFFF" fill-opacity="1"/></g></g></g><g clip-path="url(#master_svg8_10_7275)"><g><path d="M222.99984472656251,153.77888623046874C213.0338447265625,153.77888623046874,203.7718447265625,151.17188623046874,196.0498447265625,146.69488623046874L180.37484472656251,151.75488623046874C179.6928447265625,151.97488623046877,178.9448447265625,151.95288623046875,178.2738447265625,151.67788623046874C176.7118447265625,151.03988623046877,175.9638447265625,149.25788623046876,176.6018447265625,147.69588623046874L182.0578447265625,134.39688623046874C177.0308447265625,127.66488623046875,174.1158447265625,119.63488623046875,174.1158447265625,110.99988623046875C174.1158447265625,87.37188623046875,196.0058447265625,68.22088623046875,222.99984472656251,68.22088623046875C249.9938447265625,68.22088623046875,271.88384472656253,87.37188623046875,271.88384472656253,110.99988623046875C271.88384472656253,134.62788623046873,250.0048447265625,153.77888623046874,222.99984472656251,153.77888623046874ZM222.99984472656251,117.11588623046876C226.3768447265625,117.11588623046876,229.1158447265625,114.37688623046876,229.1158447265625,110.99988623046875C229.1158447265625,107.62288623046875,226.3768447265625,104.88388623046875,222.99984472656251,104.88388623046875C219.6228447265625,104.88388623046875,216.8838447265625,107.62288623046875,216.8838447265625,110.99988623046875C216.8838447265625,114.37688623046876,219.6228447265625,117.11588623046876,222.99984472656251,117.11588623046876ZM198.5578447265625,117.11588623046876C201.9348447265625,117.11588623046876,204.6738447265625,114.37688623046876,204.6738447265625,110.99988623046875C204.6738447265625,107.62288623046875,201.9348447265625,104.88388623046875,198.5578447265625,104.88388623046875C195.1808447265625,104.88388623046875,192.4418447265625,107.62288623046875,192.4418447265625,110.99988623046875C192.4418447265625,114.37688623046876,195.1808447265625,117.11588623046876,198.5578447265625,117.11588623046876ZM247.4418447265625,117.11588623046876C250.8188447265625,117.11588623046876,253.5578447265625,114.37688623046876,253.5578447265625,110.99988623046875C253.5578447265625,107.62288623046875,250.8188447265625,104.88388623046875,247.4418447265625,104.88388623046875C244.0648447265625,104.88388623046875,241.32584472656248,107.62288623046875,241.32584472656248,110.99988623046875C241.3368447265625,114.37688623046876,244.0648447265625,117.11588623046876,247.4418447265625,117.11588623046876Z" fill="#FF8686" fill-opacity="1"/></g></g></g></g></svg>