<?xml version="1.0" standalone="no"?><!DOCTYPE svg PUBLIC "-//W3C//DTD SVG 1.1//EN" "http://www.w3.org/Graphics/SVG/1.1/DTD/svg11.dtd"><svg t="1733150153483" class="icon" viewBox="0 0 1024 1024" version="1.1" xmlns="http://www.w3.org/2000/svg" p-id="5920" xmlns:xlink="http://www.w3.org/1999/xlink" width="200" height="200"><path d="M876.544 401.408v-28.672c0-126.976-102.4-229.376-229.376-229.376-90.112 0-167.936 49.152-204.8 122.88-28.672-12.288-61.44-20.48-90.112-20.48-94.208 0-176.128 65.536-196.608 155.648-73.728 16.384-131.072 81.92-131.072 163.84 0 94.208 73.728 167.936 167.936 167.936H327.68c0-20.48 4.096-40.96 12.288-57.344 12.288-28.672 36.864-49.152 61.44-61.44v-36.864c0-81.92 65.536-147.456 147.456-147.456s147.456 65.536 147.456 147.456v36.864c28.672 12.288 49.152 32.768 61.44 61.44 8.192 16.384 12.288 36.864 12.288 57.344h61.44c94.208 0 167.936-73.728 167.936-167.936 4.096-81.92-49.152-147.456-122.88-163.84z" p-id="5921" fill="#ffffff"></path><path d="M552.96 503.808c-36.864 0-65.536 28.672-65.536 65.536v110.592H450.56c-16.384 0-28.672 8.192-36.864 24.576-8.192 16.384-4.096 32.768 4.096 45.056l102.4 118.784c16.384 20.48 45.056 20.48 61.44 0l102.4-118.784c8.192-12.288 12.288-28.672 4.096-45.056-8.192-12.288-20.48-24.576-36.864-24.576h-32.768v-110.592c0-32.768-28.672-65.536-65.536-65.536z" p-id="5922" fill="#ffffff"></path></svg>