<svg xmlns="http://www.w3.org/2000/svg" xmlns:xlink="http://www.w3.org/1999/xlink" fill="none" version="1.1" width="300" height="300" viewBox="0 0 300 300"><defs><clipPath id="master_svg0_6_81"><rect x="0" y="0" width="300" height="300" rx="0"/></clipPath><filter id="master_svg1_6_84" filterUnits="objectBoundingBox" color-interpolation-filters="sRGB" x="0" y="0" width="256" height="256"><feFlood flood-opacity="0" result="BackgroundImageFix"/><feBlend mode="normal" in="SourceGraphic" in2="BackgroundImageFix" result="shape"/><feColorMatrix in="SourceAlpha" type="matrix" result="hardAlpha" values="0 0 0 0 0 0 0 0 0 0 0 0 0 0 0 0 0 0 127 0"/><feOffset dy="-5" dx="-5"/><feGaussianBlur stdDeviation="5"/><feComposite in2="hardAlpha" operator="arithmetic" k2="-1" k3="1"/><feColorMatrix type="matrix" values="0 0 0 0 0.6726190447807312 0 0 0 0 0.6726190447807312 0 0 0 0 0.6726190447807312 0 0 0 1 0"/><feBlend mode="normal" in2="shape" result="effect1_innerShadow"/><feColorMatrix in="SourceAlpha" type="matrix" result="hardAlpha" values="0 0 0 0 0 0 0 0 0 0 0 0 0 0 0 0 0 0 127 0"/><feOffset dy="4" dx="6"/><feGaussianBlur stdDeviation="5"/><feComposite in2="hardAlpha" operator="arithmetic" k2="-1" k3="1"/><feColorMatrix type="matrix" values="0 0 0 0 1 0 0 0 0 1 0 0 0 0 1 0 0 0 1 0"/><feBlend mode="normal" in2="effect1_innerShadow" result="effect2_innerShadow"/></filter><clipPath id="master_svg2_6_1621"><rect x="177.21739196777344" y="154.58824157714844" width="84.78260803222656" height="82.13904571533203" rx="0"/></clipPath></defs><g clip-path="url(#master_svg0_6_81)"><g filter="url(#master_svg1_6_84)"><rect x="22" y="22" width="256" height="256" rx="60" fill="#E2E2E2" fill-opacity="1"/></g><g><g><ellipse cx="147.01358795166016" cy="151.94117736816406" rx="80.01358795166016" ry="79.94117736816406" fill="#4488B9" fill-opacity="1"/></g><g><ellipse cx="147.0135898590088" cy="151.94118118286133" rx="63.05706787109375" ry="63.000003814697266" fill="#E2E2E2" fill-opacity="1"/></g><g><rect x="156.02174377441406" y="104.82353210449219" width="89.02174377441406" height="147.17648315429688" rx="0" fill="#E2E2E2" fill-opacity="1"/></g><g clip-path="url(#master_svg2_6_1621)"><g><path d="M205.78659880371094,203.55586904296877L208.87479880371095,209.19526904296873L214.51919880371094,212.27806904296875C215.34359880371093,212.72816904296874,215.85629880371093,213.59186904296877,215.85629880371093,214.53046904296875C215.85629880371093,215.46896904296875,215.34359880371093,216.33276904296875,214.51919880371094,216.78286904296874L208.87479880371095,219.86816904296876L205.78659880371094,225.50496904296875C205.33569880371093,226.32726904296874,204.47189880371093,226.83846904296874,203.53339880371095,226.83846904296874C202.59499880371095,226.83846904296874,201.73119880371092,226.32726904296874,201.28029880371093,225.50496904296875L198.19213880371095,219.86816904296876L192.55024880371093,216.78286904296874C191.72590880371095,216.33276904296875,191.21318880371095,215.46906904296875,191.21318880371095,214.53046904296875C191.21318880371095,213.59186904296877,191.72590880371095,212.72816904296874,192.55024880371093,212.27806904296875L198.19213880371095,209.19526904296873L201.28029880371093,203.55586904296877C201.73119880371092,202.73366904296876,202.59499880371095,202.22236904296875,203.53339880371095,202.22236904296875C204.47189880371093,202.22236904296875,205.33569880371093,202.73366904296876,205.78659880371094,203.55586904296877ZM236.20559880371093,179.08876904296875L239.74079880371093,186.24256904296874L247.64349880371094,187.38986904296874C248.61159880371093,187.53036904296874,249.41579880371094,188.20776904296875,249.71789880371094,189.13736904296874C250.01999880371093,190.06686904296876,249.76759880371094,191.08706904296875,249.06689880371093,191.76896904296876L243.34789880371093,197.33896904296876L244.69929880371095,205.20126904296876C244.86439880371094,206.16416904296875,244.46809880371094,207.13736904296874,243.67689880371094,207.71146904296876C242.88579880371094,208.28566904296875,241.83689880371094,208.36136904296876,240.97139880371094,207.90666904296876L233.90359880371093,204.19506904296875L226.83579880371093,207.90666904296876C225.97029880371093,208.36136904296876,224.92149880371093,208.28566904296875,224.13029880371093,207.71146904296876C223.33909880371095,207.13736904296874,222.94279880371093,206.16416904296875,223.10799880371093,205.20126904296876L224.45679880371094,197.33896904296876L218.73779880371094,191.76896904296876C218.03689880371093,191.08676904296874,217.78479880371094,190.06596904296876,218.08749880371093,189.13636904296874C218.39019880371094,188.20666904296874,219.19519880371092,187.52956904296875,220.16369880371093,187.38986904296874L228.06389880371094,186.24256904296874L231.59909880371094,179.08876904296875C232.03209880371094,178.21326904296876,232.92489880371093,177.65906904296875,233.90229880371095,177.65906904296875C234.87979880371094,177.65906904296875,235.77249880371093,178.21326904296876,236.20559880371093,179.08876904296875ZM203.81859880371093,165.90798904296875L206.11289880371095,170.55397904296876L211.24349880371093,171.29835904296874C212.21039880371094,171.43953904296876,213.01349880371095,172.11650904296874,213.31539880371093,173.04501904296876C213.61739880371093,173.97352904296875,213.36599880371094,174.99276904296875,212.66679880371095,175.67486904296874L208.95439880371094,179.29156904296875L209.82789880371092,184.39696904296875C209.99239880371093,185.35916904296874,209.59629880371094,186.33126904296876,208.80599880371093,186.90526904296874C208.01569880371093,187.47916904296875,206.96799880371094,187.55566904296876,206.10259880371095,187.10246904296875L201.51409880371094,184.69216904296874L196.92553880371094,187.10496904296875C196.05955880371093,187.56006904296873,195.01000880371095,187.48426904296875,194.21859880371093,186.90936904296876C193.42719880371095,186.33446904296875,193.03135880371093,185.36036904296876,193.19767880371094,184.39696904296875L194.07119880371093,179.29156904296875L190.36131180371095,175.67486904296874C189.66213440371095,174.99276904296875,189.41075280371095,173.97351904296875,189.71272280371093,173.04501904296876C190.01469280371094,172.11650904296874,190.81772880371093,171.43953904296876,191.78463880371095,171.29836904296874L196.91526880371094,170.55397904296876L199.20953880371093,165.90798904296875C199.64209880371095,165.03108004296874,200.53559880371094,164.47576904296875,201.51409880371094,164.47576904296875C202.49259880371093,164.47576965495276,203.38609880371095,165.03108204296876,203.81859880371093,165.90798904296875Z" fill="#4488B9" fill-opacity="1"/></g><g><rect x="182.21739196777344" y="163.58824157714844" width="35" height="30" rx="0" fill="#E2E2E2" fill-opacity="1"/></g><g><rect x="213.99998474121094" y="166" width="37" height="43" rx="0" fill="#E2E2E2" fill-opacity="1"/></g></g><g transform="matrix(0.744739294052124,0.6673555374145508,-0.6680254936218262,0.7441383600234985,157.84722557414352,-94.27167332082718)"><rect x="202.2275390625" y="159.01560974121094" width="17" height="87.33708190917969" rx="8.5" fill="#4488B9" fill-opacity="1"/></g><g transform="matrix(0,1,-1,0,332,-30)"><rect x="181" y="151" width="17" height="71" rx="8.5" fill="#4488B9" fill-opacity="1"/></g><g transform="matrix(-0.7377223372459412,0.6751042604446411,-0.6757693290710449,-0.7371131777763367,397.1914887059411,221.40762394719422)"><rect x="155.50265502929688" y="187.89111328125" width="17" height="51.404747009277344" rx="8.5" fill="#4488B9" fill-opacity="1"/></g><g transform="matrix(0.7087156772613525,0.705494225025177,-0.7061355710029602,0.7080765962600708,119.41216695487878,-112.79166212384325)"><rect x="196.33741760253906" y="88.1164436340332" width="27.808958053588867" height="16.96271324157715" rx="8.481356620788574" fill="#4488B9" fill-opacity="1"/></g></g></g></svg>