<svg xmlns="http://www.w3.org/2000/svg" xmlns:xlink="http://www.w3.org/1999/xlink" fill="none" version="1.1" width="880" height="502" viewBox="0 0 880 502"><defs><clipPath id="master_svg0_31_1467"><rect x="0" y="0" width="430" height="500" rx="40"/></clipPath><clipPath id="master_svg1_31_1479"><rect x="256" y="2" width="624" height="500" rx="40"/></clipPath></defs><g><g clip-path="url(#master_svg0_31_1467)"><rect x="0" y="0" width="430" height="500" rx="40" fill="#323232" fill-opacity="1"/><g><g><ellipse cx="31" cy="250" rx="16" ry="16" fill="#4D4D4D" fill-opacity="1"/></g><g><ellipse cx="31" cy="300" rx="16" ry="16" fill="#4D4D4D" fill-opacity="1"/></g><g><ellipse cx="31" cy="200" rx="16" ry="16" fill="#4D4D4D" fill-opacity="1"/></g></g><g><path d="M258 29C258 24.581722001353654 261.5817220013536 21 266 21L838 21C849.0456949966159 21 858 29.954305003384135 858 41L858 463C858 474.04569499661585 849.0456949966159 483 838 483L266 483C261.5817220013536 483 258 479.4182779986464 258 475Z" fill="#3A3A3A" fill-opacity="1"/></g><g><path d="M73 41C73 29.954305003384135 81.95430500338414 21 93 21L245 21C249.41827799864635 21 253 24.581722001353654 253 29L253 475C253 479.4182779986464 249.41827799864635 483 245 483L93 483C81.95430500338414 483 73 474.04569499661585 73 463Z" fill="#3A3A3A" fill-opacity="1"/></g><g><rect x="83" y="35" width="160" height="30" rx="8" fill="#FFE3E3" fill-opacity="1"/></g><g><rect x="83" y="85" width="160" height="48" rx="8" fill="#FFE3E3" fill-opacity="1"/></g><g><rect x="635" y="50" width="205" height="30" rx="8" fill="#FFE3E3" fill-opacity="1"/></g><g><rect x="558" y="133" width="282" height="30" rx="8" fill="#FFE3E3" fill-opacity="1"/></g><g><rect x="272" y="94" width="231" height="30" rx="8" fill="#FFE3E3" fill-opacity="1"/></g></g><g clip-path="url(#master_svg1_31_1479)"><rect x="256" y="2" width="624" height="500" rx="40" fill="#EDEDED" fill-opacity="1"/><g><g><ellipse cx="287" cy="252" rx="16" ry="16" fill="#D8D8D8" fill-opacity="1"/></g><g><ellipse cx="287" cy="302" rx="16" ry="16" fill="#D8D8D8" fill-opacity="1"/></g><g><ellipse cx="287" cy="202" rx="16" ry="16" fill="#D8D8D8" fill-opacity="1"/></g></g><g><path d="M514 31C514 26.581722001353654 517.5817220013537 23 522 23L1094 23C1105.0456949966158 23 1114 31.954305003384135 1114 43L1114 465C1114 476.04569499661585 1105.0456949966158 485 1094 485L522 485C517.5817220013537 485 514 481.4182779986464 514 477Z" fill="#FFFFFF" fill-opacity="1"/></g><g><path d="M329 43C329 31.954305003384135 337.95430500338415 23 349 23L501 23C505.4182779986464 23 509 26.581722001353654 509 31L509 477C509 481.4182779986464 505.4182779986464 485 501 485L349 485C337.95430500338415 485 329 476.04569499661585 329 465Z" fill="#FFFFFF" fill-opacity="1"/></g><g><rect x="339" y="37" width="160" height="30" rx="8" fill="#FFDBDB" fill-opacity="1"/></g><g><rect x="339" y="87" width="160" height="48" rx="8" fill="#FFDBDB" fill-opacity="1"/></g><g><rect x="891" y="52" width="205" height="30" rx="8" fill="#FFDBDB" fill-opacity="1"/></g><g><rect x="814" y="135" width="282" height="30" rx="8" fill="#FFDBDB" fill-opacity="1"/></g><g><rect x="528" y="96" width="231" height="30" rx="8" fill="#FFDBDB" fill-opacity="1"/></g></g></g></svg>