<svg xmlns="http://www.w3.org/2000/svg" xmlns:xlink="http://www.w3.org/1999/xlink" fill="none" version="1.1" width="880" height="500" viewBox="0 0 880 500"><defs><clipPath id="master_svg0_31_29"><rect x="0" y="0" width="880" height="500" rx="40"/></clipPath></defs><g clip-path="url(#master_svg0_31_29)"><rect x="0" y="0" width="880" height="500" rx="40" fill="#EDEDED" fill-opacity="1"/><g><g><ellipse cx="31" cy="250" rx="16" ry="16" fill="#D8D8D8" fill-opacity="1"/></g><g><ellipse cx="31" cy="300" rx="16" ry="16" fill="#D8D8D8" fill-opacity="1"/></g><g><ellipse cx="31" cy="200" rx="16" ry="16" fill="#D8D8D8" fill-opacity="1"/></g></g><g><path d="M258 29C258 24.581722001353654 261.5817220013536 21 266 21L838 21C849.0456949966159 21 858 29.954305003384135 858 41L858 463C858 474.04569499661585 849.0456949966159 483 838 483L266 483C261.5817220013536 483 258 479.4182779986464 258 475Z" fill="#FFFFFF" fill-opacity="1"/></g><g><path d="M73 41C73 29.954305003384135 81.95430500338414 21 93 21L245 21C249.41827799864635 21 253 24.581722001353654 253 29L253 475C253 479.4182779986464 249.41827799864635 483 245 483L93 483C81.95430500338414 483 73 474.04569499661585 73 463Z" fill="#FFFFFF" fill-opacity="1"/></g><g><rect x="83" y="35" width="160" height="30" rx="8" fill="#FFDBDB" fill-opacity="1"/></g><g><rect x="83" y="85" width="160" height="48" rx="8" fill="#FFDBDB" fill-opacity="1"/></g><g><rect x="635" y="50" width="205" height="30" rx="8" fill="#FFDBDB" fill-opacity="1"/></g><g><rect x="558" y="133" width="282" height="30" rx="8" fill="#FFDBDB" fill-opacity="1"/></g><g><rect x="272" y="94" width="231" height="30" rx="8" fill="#FFDBDB" fill-opacity="1"/></g></g></svg>