<svg xmlns="http://www.w3.org/2000/svg" xmlns:xlink="http://www.w3.org/1999/xlink" fill="none" version="1.1" width="16" height="16" viewBox="0 0 16 16"><defs><clipPath id="master_svg0_4_04"><rect x="0" y="0" width="16" height="16" rx="0"/></clipPath></defs><g clip-path="url(#master_svg0_4_04)"><g><path d="M7.99999029296875,0.99530029296875C4.14843029296875,0.99530029296875,0.99530029296875,4.14843029296875,0.99530029296875,7.99999029296875C0.99530029296875,11.85150029296875,4.14843029296875,15.00470029296875,7.99999029296875,15.00470029296875C11.85150029296875,15.00470029296875,15.00470029296875,11.85150029296875,15.00470029296875,7.99999029296875C15.00470029296875,4.14843029296875,11.85150029296875,0.99530029296875,7.99999029296875,0.99530029296875ZM7.99999029296875,13.00310029296875C7.44842029296875,13.00160029296875,6.99999029296875,12.55470029296875,6.99999029296875,12.00310029296875C6.99999029296875,11.45310029296875,7.44999029296875,11.00310029296875,7.99999029296875,11.00310029296875C8.54999029296875,11.00310029296875,8.99999029296875,11.45310029296875,8.99999029296875,12.00310029296875C8.99999029296875,12.55310029296875,8.54999029296875,13.00310029296875,7.99999029296875,13.00310029296875ZM9.30155029296875,5.44842029296875Q9.30155029296875,5.49843029296875,9.30155029296875,5.44842029296875Q9.30155029296875,5.49843029296875,8.44999029296875,9.44999029296875Q8.49999029296875,9.14999029296875,8.44999029296875,9.44999029296875C8.39999029296875,9.74999029296875,8.24999029296875,9.89999029296875,7.99999029296875,9.89999029296875C7.74999029296875,9.89999029296875,7.59999029296875,9.69999029296875,7.54999029296875,9.39999029296875Q7.44999029296875,9.09999029296875,6.69842029296875,5.54843029296875C6.69842029296875,5.44843029296875,6.64842029296875,5.34843029296875,6.64842029296875,5.29843029296875C6.64842029296875,4.5484302929687495,7.24842029296875,3.94686029296875,7.99999029296875,3.94686029296875C8.75155029296875,3.94686029296875,9.35155029296875,4.54686029296875,9.35155029296875,5.29843029296875Q9.30155029296875,5.39843029296875,9.30155029296875,5.44842029296875Z" fill="#FFFFFF" fill-opacity="1"/></g></g></svg>