<svg xmlns="http://www.w3.org/2000/svg" xmlns:xlink="http://www.w3.org/1999/xlink" fill="none" version="1.1" width="16" height="16" viewBox="0 0 16 16"><defs><clipPath id="master_svg0_1_1"><rect x="0" y="0" width="16" height="16" rx="0"/></clipPath></defs><g clip-path="url(#master_svg0_1_1)"><g><path d="M8.666666494140625,2.036656494140625L8.666666494140625,4.999986494140625L7.333326494140625,4.999986494140625L7.333326494140625,0.666656494140625L7.999996494140625,0.666656494140625C12.049956494140625,0.666656494140625,15.333356494140626,3.949986494140625,15.333356494140626,7.999986494140625C15.333356494140626,12.049956494140625,12.049956494140625,15.333356494140626,7.999996494140625,15.333356494140626C3.949996494140625,15.333356494140626,0.666661918160625,12.049956494140625,0.666661918160625,7.999986494140625C0.664208654140625,5.985026494140625,1.493213494140625,4.058316494140625,2.957996494140625,2.674656494140625C3.157996494140625,2.485656494140625,3.367996494140625,2.307986494140625,3.587326494140625,2.142326494140625L4.390326494140625,3.206986494140625C4.2103264941406255,3.342326494140625,4.038326494140625,3.487986494140625,3.874996494140625,3.642986494140625C2.676096494140625,4.774756494140625,1.997646494140625,6.351286494140625,1.999996494140625,7.999986494140625C1.999996494140625,11.313656494140625,4.686326494140625,13.999956494140624,7.999996494140625,13.999956494140624C11.313656494140625,13.999956494140624,13.999956494140624,11.313656494140625,13.999956494140624,7.999986494140625C13.999956494140624,4.911656494140625,11.666656494140625,2.368326494140625,8.666666494140625,2.036656494140625ZM6.667326494140625,8.040656494140624L4.3046664941406245,4.637986494140625L4.637996494140625,4.304656494140625L8.040666494140625,6.667326494140625C8.766146494140624,6.689436494140625,9.340676494140626,7.287796494140625,9.333306494140626,8.013576494140626C9.325936494140626,8.739366494140626,8.739376494140625,9.325926494140624,8.013586494140625,9.333306494140626C7.287796494140625,9.340676494140626,6.689436494140625,8.766146494140624,6.667326494140625,8.040656494140624Z" fill="#FFFFFF" fill-opacity="1"/></g></g></svg>