<svg xmlns="http://www.w3.org/2000/svg" xmlns:xlink="http://www.w3.org/1999/xlink" fill="none" version="1.1" width="16" height="16" viewBox="0 0 16 16"><defs><clipPath id="master_svg0_4_08"><rect x="0" y="0" width="16" height="16" rx="0"/></clipPath></defs><g clip-path="url(#master_svg0_4_08)"><g><path d="M8.001556396484375,1.006256103515625C4.135936396484375,1.006256103515625,1.001556396484375,4.140636103515625,1.001556396484375,8.006256103515625C1.001556396484375,11.871856103515626,4.135936396484375,15.006256103515625,8.001556396484375,15.006256103515625C11.867156396484376,15.006256103515625,15.001556396484375,11.871856103515626,15.001556396484375,8.006256103515625C15.001556396484375,4.139066103515625,11.867156396484376,1.006256461143625,8.001556396484375,1.006256103515625ZM7.499996396484375,7.470316103515625C7.499996396484375,7.193756103515625,7.723436396484375,6.970316103515625,7.999996396484375,6.970316103515625C8.276556396484375,6.970316103515625,8.499996396484375,7.193756103515625,8.499996396484375,7.470316103515625L8.499996396484375,11.000006103515625C8.499996396484375,11.274956103515626,8.276556396484375,11.499956103515625,7.999996396484375,11.499956103515625C7.723436396484375,11.499956103515625,7.499996396484375,11.276556103515626,7.499996396484375,11.000006103515625L7.499996396484375,7.470316103515625ZM8.501556396484375,5.529696103515625C8.501556396484375,5.806256103515625,8.278116396484375,6.029696103515625,8.001556396484375,6.029696103515625C7.724996396484375,6.029696103515625,7.501556396484375,5.806256103515625,7.501556396484375,5.529696103515625L7.501556396484375,5.010946103515625C7.501556396484375,4.734386103515625,7.724996396484375,4.510946103515625,8.001556396484375,4.510946103515625C8.278116396484375,4.510946103515625,8.501556396484375,4.734386103515625,8.501556396484375,5.010946103515625L8.501556396484375,5.529696103515625Z" fill="#FFFFFF" fill-opacity="1"/></g></g></svg>