<svg xmlns="http://www.w3.org/2000/svg" xmlns:xlink="http://www.w3.org/1999/xlink" fill="none" version="1.1" width="16" height="13.607973098754883" viewBox="0 0 16 13.607973098754883"><defs><clipPath id="master_svg0_4_00"><rect x="0" y="0" width="16" height="13.607973098754883" rx="0"/></clipPath></defs><g clip-path="url(#master_svg0_4_00)"><g><path d="M13.1985,13L2.8015499999999998,13C1.194029,13,0.538215,11.9087,1.345982,10.57407L6.54443,2.00098C7.35219,0.6663399999999999,8.67179,0.6663399999999999,9.47956,2.00098L14.654,10.57409C15.4618,11.9087,14.806,13,13.1985,13L13.1985,13ZM8,3.36702C7.56747,3.3678,7.21703,3.7118,7.21623,4.1363900000000005L7.60811,9.14523L8.39188,9.14523L8.78377,4.1363900000000005C8.782969999999999,3.7118,8.43253,3.3678,8,3.36702ZM8,9.9146C7.56747,9.91539,7.21702,10.25939,7.21623,10.68399C7.21702,11.1086,7.56746,11.4526,8,11.4534C8.43253,11.4526,8.782969999999999,11.1086,8.78377,10.68399C8.78022,10.26052,8.43138,9.91809,8,9.9146Z" fill="#FFFFFF" fill-opacity="1"/></g></g></svg>