<svg xmlns="http://www.w3.org/2000/svg" xmlns:xlink="http://www.w3.org/1999/xlink" fill="none" version="1.1" width="16" height="16" viewBox="0 0 16 16"><defs><clipPath id="master_svg0_30_40"><rect x="0" y="0" width="16" height="16" rx="0"/></clipPath></defs><g clip-path="url(#master_svg0_30_40)"><g><path d="M7.99981,7.178755258789063L13.0653,2.1137712587890625C13.2166,1.9626139587890625,13.4617,1.9626139587890625,13.6129,2.1137712587890625L13.8866,2.3875232587890625C14.0378,2.5387252587890625,14.0378,2.7838242587890623,13.8866,2.9350262587890628L8.821480000000001,8.000015258789062L13.8862,13.065415258789063C14.0374,13.216615258789062,14.0374,13.461715258789063,13.8862,13.612915258789062L13.6125,13.886615258789062C13.4613,14.037815258789063,13.2162,14.037815258789063,13.065,13.886615258789062L7.99981,8.821655258789063L2.934654,13.886215258789063C2.783447,14.037415258789062,2.53834,14.037415258789062,2.387132,13.886215258789063L2.113372,13.612515258789063C1.9622097,13.461315258789062,1.9622097,13.216215258789063,2.113372,13.065015258789062L7.17852,7.999625258789062L2.113371,2.9346382587890627C1.9622097,2.7834362587890626,1.9622097,2.5383372587890625,2.113371,2.3871342587890627L2.387132,2.1133822587890627C2.538339,1.9622261587890626,2.783445,1.9622261587890626,2.934653,2.1133822587890627L7.99981,7.178375258789062L7.99981,7.178755258789063Z" fill="#1A1A1A" fill-opacity="1" style="mix-blend-mode:passthrough"/></g></g></svg>