<?xml version="1.0" standalone="no"?><!DOCTYPE svg PUBLIC "-//W3C//DTD SVG 1.1//EN" "http://www.w3.org/Graphics/SVG/1.1/DTD/svg11.dtd"><svg t="1731766299416" class="icon" viewBox="0 0 1024 1024" version="1.1" xmlns="http://www.w3.org/2000/svg" p-id="42324" xmlns:xlink="http://www.w3.org/1999/xlink" width="200" height="200"><path d="M742.4 649.216c-19.114667 0-34.474667 15.36-34.474667 34.474667v68.608c0 13.312-10.922667 24.234667-24.576 24.234666h-131.072V247.125333h131.072c13.653333 0 24.576 10.922667 24.576 24.234667v73.045333a34.679467 34.679467 0 0 0 69.290667 0V271.36c0-51.541333-41.984-93.525333-93.866667-93.525333h-132.437333a84.445867 84.445867 0 0 0-101.376-68.266667L168.277333 172.373333A83.968 83.968 0 0 0 102.4 254.634667v514.730666c0 39.936 26.965333 73.386667 65.877333 82.261334l281.258667 62.805333c48.571733 10.786133 94.549333-23.1424 101.376-68.608h132.437333c51.882667 0 93.866667-41.984 93.866667-93.525333v-68.608c0-19.114667-15.701333-34.474667-34.816-34.474667zM365.568 512c0-24.917333 20.48-45.397333 45.397333-45.397333 5.461333 0 10.24 1.024 15.018667 2.730666 17.749333 6.144 30.378667 22.869333 30.378667 42.666667s-12.629333 36.522667-30.378667 42.666667c-4.778667 1.706667-9.557333 2.730667-15.018667 2.730666-24.917333 0-45.397333-20.48-45.397333-45.397333z" p-id="42325" fill="#ffffff"></path><path d="M907.3664 483.703467l-81.237333-61.098667a35.396267 35.396267 0 0 0-36.4544-3.106133c-11.776 5.905067-19.080533 17.7152-19.080534 30.890666v26.7264h-95.470933a34.816 34.816 0 0 0-34.7136 34.7136c0 19.114667 15.633067 34.7136 34.7136 34.7136h95.470933v26.385067c0 13.175467 7.304533 25.326933 19.114667 31.232 11.776 5.905067 26.0096 4.5056 36.420267-3.4816l81.578666-61.44c8.669867-6.587733 13.892267-16.657067 13.892267-27.7504 0-10.752-5.2224-21.162667-14.2336-27.784533z" p-id="42326" fill="#ffffff"></path></svg>